%FSAX25Y25*%
%MOIN*%
G70*
G01*
G75*
G04 Layer_Color=16711935*
%ADD10O,0.06890X0.02165*%
%ADD11O,0.02165X0.06890*%
%ADD12R,0.03740X0.07480*%
%ADD13R,0.21654X0.27165*%
%ADD14R,0.11811X0.05906*%
%ADD15R,0.11811X0.05906*%
%ADD16R,0.02992X0.04921*%
%ADD17O,0.08661X0.02362*%
%ADD18R,0.12500X0.06000*%
%ADD19R,0.10000X0.06000*%
%ADD20R,0.03000X0.03000*%
%ADD21R,0.03000X0.03000*%
%ADD22R,0.05906X0.11811*%
%ADD23R,0.05906X0.11811*%
%ADD24R,0.06000X0.06000*%
%ADD25R,0.06000X0.12500*%
%ADD26C,0.03500*%
%ADD27C,0.01200*%
%ADD28C,0.01500*%
%ADD29C,0.05000*%
%ADD30C,0.08000*%
%ADD31C,0.06000*%
%ADD32C,0.08661*%
%ADD33R,0.10000X0.10000*%
%ADD34C,0.10000*%
%ADD35C,0.06693*%
%ADD36R,0.06693X0.06693*%
%ADD37C,0.06890*%
%ADD38R,0.06890X0.06890*%
%ADD39R,0.10000X0.10000*%
%ADD40C,0.23622*%
%ADD41C,0.03200*%
%ADD42O,0.06693X0.01378*%
%ADD43R,0.06693X0.01378*%
%ADD44R,0.06000X0.06000*%
%ADD45R,0.05000X0.06000*%
%ADD46R,0.06000X0.10000*%
%ADD47C,0.00984*%
%ADD48C,0.02362*%
%ADD49C,0.01000*%
%ADD50C,0.02000*%
%ADD51C,0.00787*%
%ADD52C,0.00500*%
%ADD53R,0.18800X0.24800*%
%ADD54O,0.08890X0.04165*%
%ADD55O,0.04165X0.08890*%
%ADD56R,0.05740X0.09480*%
%ADD57R,0.23654X0.29165*%
%ADD58R,0.13811X0.07906*%
%ADD59R,0.13811X0.07906*%
%ADD60R,0.04992X0.06921*%
%ADD61O,0.10661X0.04362*%
%ADD62R,0.14500X0.08000*%
%ADD63R,0.12000X0.08000*%
%ADD64R,0.05000X0.05000*%
%ADD65R,0.05000X0.05000*%
%ADD66R,0.07906X0.13811*%
%ADD67R,0.07906X0.13811*%
%ADD68R,0.08000X0.08000*%
%ADD69R,0.08000X0.14500*%
%ADD70C,0.08000*%
%ADD71C,0.02000*%
%ADD72C,0.10661*%
%ADD73R,0.12000X0.12000*%
%ADD74C,0.12000*%
%ADD75C,0.08693*%
%ADD76R,0.08693X0.08693*%
%ADD77C,0.08890*%
%ADD78R,0.08890X0.08890*%
%ADD79R,0.12000X0.12000*%
%ADD80C,0.25622*%
%ADD81O,0.08693X0.03378*%
%ADD82R,0.08693X0.03378*%
%ADD83R,0.08000X0.08000*%
%ADD84R,0.07000X0.08000*%
%ADD85R,0.08000X0.12000*%
D58*
X0204758Y-0174700D02*
D03*
Y-0164700D02*
D03*
D59*
X0187042Y-0169700D02*
D03*
Y-0159700D02*
D03*
D61*
X0106751Y-0057900D02*
D03*
Y-0052900D02*
D03*
Y-0047900D02*
D03*
Y-0042900D02*
D03*
Y-0037900D02*
D03*
Y-0032900D02*
D03*
Y-0027900D02*
D03*
X0125649Y-0057900D02*
D03*
Y-0052900D02*
D03*
Y-0047900D02*
D03*
Y-0042900D02*
D03*
Y-0037900D02*
D03*
Y-0032900D02*
D03*
Y-0027900D02*
D03*
D64*
X0113250Y-0185000D02*
D03*
X0118750D02*
D03*
X0244450Y-0157000D02*
D03*
X0238950D02*
D03*
X0244650Y-0167000D02*
D03*
X0239150D02*
D03*
X0221250Y-0188000D02*
D03*
X0226750D02*
D03*
X0221250Y-0182000D02*
D03*
X0226750D02*
D03*
X0221250Y-0175000D02*
D03*
X0226750D02*
D03*
X0221250Y-0169000D02*
D03*
X0226750D02*
D03*
X0221250Y-0162000D02*
D03*
X0226750D02*
D03*
X0221250Y-0156000D02*
D03*
X0226750D02*
D03*
X0198750Y-0068200D02*
D03*
X0193250D02*
D03*
X0174050Y-0129600D02*
D03*
X0179550D02*
D03*
X0113250Y-0115000D02*
D03*
X0118750D02*
D03*
X0113250Y-0125000D02*
D03*
X0118750D02*
D03*
X0113250Y-0135000D02*
D03*
X0118750D02*
D03*
X0113250Y-0145000D02*
D03*
X0118750D02*
D03*
X0113250Y-0155000D02*
D03*
X0118750D02*
D03*
X0113250Y-0165000D02*
D03*
X0118750D02*
D03*
X0113250Y-0175000D02*
D03*
X0118750D02*
D03*
D65*
X0129800Y-0121950D02*
D03*
Y-0127450D02*
D03*
X0158300Y-0145650D02*
D03*
Y-0151150D02*
D03*
X0234300Y-0136550D02*
D03*
Y-0131050D02*
D03*
X0234200Y-0098550D02*
D03*
Y-0093050D02*
D03*
X0228300Y-0131050D02*
D03*
Y-0136550D02*
D03*
X0228200Y-0093050D02*
D03*
Y-0098550D02*
D03*
X0222300Y-0136550D02*
D03*
Y-0131050D02*
D03*
X0222200Y-0098550D02*
D03*
Y-0093050D02*
D03*
X0234300Y-0118350D02*
D03*
Y-0123850D02*
D03*
X0234200Y-0080150D02*
D03*
Y-0085650D02*
D03*
X0228300Y-0123850D02*
D03*
Y-0118350D02*
D03*
X0228200Y-0085650D02*
D03*
Y-0080150D02*
D03*
X0222300Y-0118350D02*
D03*
Y-0123850D02*
D03*
X0222200Y-0080150D02*
D03*
Y-0085650D02*
D03*
X0091500Y-0100450D02*
D03*
Y-0094950D02*
D03*
X0175900Y-0085650D02*
D03*
Y-0091150D02*
D03*
X0185900Y-0085650D02*
D03*
Y-0091150D02*
D03*
X0241800Y-0123850D02*
D03*
Y-0118350D02*
D03*
Y-0085650D02*
D03*
Y-0080150D02*
D03*
X0195900Y-0085650D02*
D03*
Y-0091150D02*
D03*
X0175700Y-0170850D02*
D03*
Y-0165350D02*
D03*
X0026800Y-0182050D02*
D03*
Y-0176550D02*
D03*
X0033800Y-0182050D02*
D03*
Y-0176550D02*
D03*
X0040800Y-0182050D02*
D03*
Y-0176550D02*
D03*
X0047800Y-0182050D02*
D03*
Y-0176550D02*
D03*
X0054800Y-0182050D02*
D03*
Y-0176550D02*
D03*
X0061800Y-0182050D02*
D03*
Y-0176550D02*
D03*
X0068800Y-0182050D02*
D03*
Y-0176550D02*
D03*
X0075800Y-0182050D02*
D03*
Y-0176550D02*
D03*
X0026800Y-0193550D02*
D03*
Y-0188050D02*
D03*
X0033800Y-0193550D02*
D03*
Y-0188050D02*
D03*
X0040800Y-0193550D02*
D03*
Y-0188050D02*
D03*
X0047800Y-0193550D02*
D03*
Y-0188050D02*
D03*
X0054800Y-0193550D02*
D03*
Y-0188050D02*
D03*
X0061800Y-0193550D02*
D03*
Y-0188050D02*
D03*
X0068800Y-0193550D02*
D03*
Y-0188050D02*
D03*
X0075800Y-0193550D02*
D03*
Y-0188050D02*
D03*
D66*
X0149200Y-0163442D02*
D03*
X0159200D02*
D03*
D67*
X0144200Y-0181158D02*
D03*
X0154200D02*
D03*
D68*
X0259500Y-0022250D02*
D03*
Y-0035750D02*
D03*
D70*
X0208000Y-0104400D02*
D03*
X0168500Y-0191000D02*
D03*
X0152700D02*
D03*
X0144800D02*
D03*
X0136900D02*
D03*
Y-0104400D02*
D03*
X0144800D02*
D03*
X0152700D02*
D03*
X0192200D02*
D03*
X0200100D02*
D03*
X0208000Y-0191000D02*
D03*
X0054685Y-0009000D02*
D03*
X0044842D02*
D03*
X0035000D02*
D03*
X0109190Y-0087300D02*
D03*
X0095410D02*
D03*
X0095685Y-0009000D02*
D03*
X0085843D02*
D03*
X0076000D02*
D03*
X0136685D02*
D03*
X0126842D02*
D03*
X0117000D02*
D03*
X0273190Y-0045800D02*
D03*
X0259410D02*
D03*
X0273190Y-0080400D02*
D03*
X0259410D02*
D03*
X0273190Y-0115000D02*
D03*
X0259410D02*
D03*
X0273190Y-0149600D02*
D03*
X0259410D02*
D03*
X0134600Y-0089390D02*
D03*
Y-0075610D02*
D03*
D71*
X0200100Y-0191000D02*
D03*
X0192200D02*
D03*
X0184300D02*
D03*
X0176400D02*
D03*
X0160600D02*
D03*
Y-0104400D02*
D03*
X0168500D02*
D03*
X0176400D02*
D03*
X0184300D02*
D03*
D72*
X0082200Y-0092500D02*
D03*
X0007200Y-0030000D02*
D03*
Y-0167500D02*
D03*
X0082200D02*
D03*
Y-0105000D02*
D03*
Y-0080000D02*
D03*
Y-0030000D02*
D03*
X0190300Y-0057700D02*
D03*
X0240300Y-0007700D02*
D03*
X0152800D02*
D03*
Y-0057700D02*
D03*
X0177800D02*
D03*
X0202800D02*
D03*
X0240300D02*
D03*
D73*
X0273400Y-0185300D02*
D03*
X0259400Y-0011300D02*
D03*
D74*
X0259620Y-0185300D02*
D03*
X0382400Y-0050180D02*
D03*
Y-0087846D02*
D03*
Y-0125513D02*
D03*
Y-0163180D02*
D03*
X0273180Y-0011300D02*
D03*
D75*
X0330093Y-0191876D02*
D03*
X0323400Y-0171876D02*
D03*
X0316707Y-0191876D02*
D03*
X0310014Y-0171876D02*
D03*
X0303321Y-0191876D02*
D03*
X0296628Y-0171876D02*
D03*
X0356864Y-0191876D02*
D03*
X0350171Y-0171876D02*
D03*
X0343479Y-0191876D02*
D03*
X0336786Y-0171876D02*
D03*
X0316833Y-0005985D02*
D03*
X0323526Y-0025985D02*
D03*
X0330219Y-0005985D02*
D03*
X0336912Y-0025985D02*
D03*
X0343605Y-0005985D02*
D03*
X0350297Y-0025985D02*
D03*
X0290061Y-0005985D02*
D03*
X0296754Y-0025985D02*
D03*
X0303447Y-0005985D02*
D03*
X0310140Y-0025985D02*
D03*
X0330267Y-0092900D02*
D03*
X0323574Y-0072900D02*
D03*
X0316881Y-0092900D02*
D03*
X0310188Y-0072900D02*
D03*
X0303495Y-0092900D02*
D03*
X0296802Y-0072900D02*
D03*
X0357039Y-0092900D02*
D03*
X0350346Y-0072900D02*
D03*
X0343653Y-0092900D02*
D03*
X0336960Y-0072900D02*
D03*
X0316833Y-0105985D02*
D03*
X0323526Y-0125985D02*
D03*
X0330219Y-0105985D02*
D03*
X0336912Y-0125985D02*
D03*
X0343605Y-0105985D02*
D03*
X0350297Y-0125985D02*
D03*
X0290061Y-0105985D02*
D03*
X0296754Y-0125985D02*
D03*
X0303447Y-0105985D02*
D03*
X0310140Y-0125985D02*
D03*
D76*
X0289935Y-0191876D02*
D03*
X0356990Y-0005985D02*
D03*
X0290109Y-0092900D02*
D03*
X0356990Y-0105985D02*
D03*
D77*
X0103000Y-0174000D02*
D03*
Y-0164000D02*
D03*
Y-0154000D02*
D03*
Y-0144000D02*
D03*
Y-0134000D02*
D03*
Y-0124000D02*
D03*
Y-0184000D02*
D03*
D78*
Y-0114000D02*
D03*
D79*
X0382400Y-0036400D02*
D03*
Y-0074067D02*
D03*
Y-0111733D02*
D03*
Y-0149400D02*
D03*
D80*
X0011811Y-0011811D02*
D03*
X0378100Y-0014500D02*
D03*
X0381890Y-0185039D02*
D03*
X0011811D02*
D03*
D81*
X0129780Y-0155216D02*
D03*
Y-0152657D02*
D03*
Y-0150098D02*
D03*
Y-0147539D02*
D03*
Y-0144980D02*
D03*
Y-0142420D02*
D03*
Y-0139861D02*
D03*
Y-0137302D02*
D03*
Y-0134743D02*
D03*
Y-0132184D02*
D03*
X0152220Y-0155216D02*
D03*
Y-0152657D02*
D03*
Y-0150098D02*
D03*
Y-0147539D02*
D03*
Y-0144980D02*
D03*
Y-0142420D02*
D03*
Y-0139861D02*
D03*
Y-0137302D02*
D03*
Y-0134743D02*
D03*
D82*
Y-0132184D02*
D03*
D83*
X0188350Y-0142800D02*
D03*
X0201850D02*
D03*
X0316750Y-0035600D02*
D03*
X0330250D02*
D03*
X0330350Y-0063200D02*
D03*
X0316850D02*
D03*
X0316750Y-0136000D02*
D03*
X0330250D02*
D03*
X0330150Y-0162100D02*
D03*
X0316650D02*
D03*
D84*
X0359500Y-0182200D02*
D03*
Y-0173200D02*
D03*
Y-0016200D02*
D03*
Y-0025200D02*
D03*
X0287500Y-0083200D02*
D03*
Y-0074200D02*
D03*
X0359500Y-0116200D02*
D03*
Y-0125200D02*
D03*
X0287500Y-0182200D02*
D03*
Y-0173200D02*
D03*
Y-0016200D02*
D03*
Y-0025200D02*
D03*
X0359500Y-0083200D02*
D03*
Y-0074200D02*
D03*
X0287500Y-0116200D02*
D03*
Y-0125200D02*
D03*
D85*
X0327550Y-0015300D02*
D03*
X0314050D02*
D03*
X0320550Y-0082600D02*
D03*
X0334050D02*
D03*
X0327250Y-0115800D02*
D03*
X0313750D02*
D03*
X0320250Y-0181700D02*
D03*
X0333750D02*
D03*
M02*
