%FSAX25Y25*%
%MOIN*%
G70*
G01*
G75*
G04 Layer_Color=32896*
%ADD10O,0.06890X0.02165*%
%ADD11O,0.02165X0.06890*%
%ADD12R,0.03740X0.07480*%
%ADD13R,0.21654X0.27165*%
%ADD14R,0.11811X0.05906*%
%ADD15R,0.11811X0.05906*%
%ADD16R,0.02992X0.04921*%
%ADD17O,0.08661X0.02362*%
%ADD18R,0.12500X0.06000*%
%ADD19R,0.10000X0.06000*%
%ADD20R,0.03000X0.03000*%
%ADD21R,0.03000X0.03000*%
%ADD22R,0.05906X0.11811*%
%ADD23R,0.05906X0.11811*%
%ADD24R,0.06000X0.06000*%
%ADD25R,0.06000X0.12500*%
%ADD26C,0.03500*%
%ADD27C,0.01200*%
%ADD28C,0.01500*%
%ADD29C,0.05000*%
%ADD30C,0.08000*%
%ADD31C,0.06000*%
%ADD32C,0.08661*%
%ADD33R,0.10000X0.10000*%
%ADD34C,0.10000*%
%ADD35C,0.06693*%
%ADD36R,0.06693X0.06693*%
%ADD37C,0.06890*%
%ADD38R,0.06890X0.06890*%
%ADD39R,0.10000X0.10000*%
%ADD40C,0.23622*%
%ADD41C,0.03200*%
%ADD42O,0.06693X0.01378*%
%ADD43R,0.06693X0.01378*%
%ADD44R,0.06000X0.06000*%
%ADD45R,0.05000X0.06000*%
%ADD46R,0.06000X0.10000*%
%ADD47C,0.00984*%
%ADD48C,0.02362*%
%ADD49C,0.01000*%
%ADD50C,0.02000*%
%ADD51C,0.00787*%
%ADD52C,0.00500*%
%ADD53R,0.18800X0.24800*%
%ADD54O,0.08890X0.04165*%
%ADD55O,0.04165X0.08890*%
%ADD56R,0.05740X0.09480*%
%ADD57R,0.23654X0.29165*%
%ADD58R,0.13811X0.07906*%
%ADD59R,0.13811X0.07906*%
%ADD60R,0.04992X0.06921*%
%ADD61O,0.10661X0.04362*%
%ADD62R,0.14500X0.08000*%
%ADD63R,0.12000X0.08000*%
%ADD64R,0.05000X0.05000*%
%ADD65R,0.05000X0.05000*%
%ADD66R,0.07906X0.13811*%
%ADD67R,0.07906X0.13811*%
%ADD68R,0.08000X0.08000*%
%ADD69R,0.08000X0.14500*%
%ADD70C,0.08000*%
%ADD71C,0.02000*%
%ADD72C,0.10661*%
%ADD73R,0.12000X0.12000*%
%ADD74C,0.12000*%
%ADD75C,0.08693*%
%ADD76R,0.08693X0.08693*%
%ADD77C,0.08890*%
%ADD78R,0.08890X0.08890*%
%ADD79R,0.12000X0.12000*%
%ADD80C,0.25622*%
%ADD81O,0.08693X0.03378*%
%ADD82R,0.08693X0.03378*%
%ADD83R,0.08000X0.08000*%
%ADD84R,0.07000X0.08000*%
%ADD85R,0.08000X0.12000*%
%ADD86C,0.01300*%
D28*
X0100000Y-0107000D02*
Y-0105001D01*
Y-0106000D01*
X0105998D01*
X0104998Y-0107000D01*
Y-0195000D02*
X0105998Y-0194000D01*
Y-0192001D01*
X0104998Y-0191001D01*
X0103999D01*
X0102999Y-0192001D01*
X0101999Y-0191001D01*
X0101000D01*
X0100000Y-0192001D01*
Y-0194000D01*
X0101000Y-0195000D01*
X0101999D01*
X0102999Y-0194000D01*
X0103999Y-0195000D01*
X0104998D01*
X0102999Y-0194000D02*
Y-0192001D01*
X0362786Y-0044003D02*
Y-0056000D01*
X0362215Y-0044003D02*
Y-0056000D01*
X0364500Y-0044003D02*
X0357644D01*
X0355930Y-0044574D01*
X0355359Y-0045145D01*
X0354788Y-0046288D01*
Y-0047430D01*
X0355359Y-0048573D01*
X0355930Y-0049144D01*
X0357644Y-0049716D01*
X0362215D01*
X0357644Y-0044003D02*
X0356502Y-0044574D01*
X0355930Y-0045145D01*
X0355359Y-0046288D01*
Y-0047430D01*
X0355930Y-0048573D01*
X0356502Y-0049144D01*
X0357644Y-0049716D01*
X0364500Y-0056000D02*
X0360501D01*
X0359358Y-0049716D02*
X0358216Y-0050287D01*
X0357644Y-0050858D01*
X0355930Y-0054857D01*
X0355359Y-0055429D01*
X0354788D01*
X0354217Y-0054857D01*
X0358216Y-0050287D02*
X0357644Y-0051429D01*
X0356502Y-0055429D01*
X0355930Y-0056000D01*
X0354788D01*
X0354217Y-0054857D01*
Y-0054286D01*
X0348675Y-0044003D02*
X0350389Y-0044574D01*
X0351531Y-0045717D01*
X0352103Y-0046859D01*
X0352674Y-0049144D01*
Y-0050858D01*
X0352103Y-0053144D01*
X0351531Y-0054286D01*
X0350389Y-0055429D01*
X0348675Y-0056000D01*
X0347532D01*
X0345818Y-0055429D01*
X0344676Y-0054286D01*
X0344104Y-0053144D01*
X0343533Y-0050858D01*
Y-0049144D01*
X0344104Y-0046859D01*
X0344676Y-0045717D01*
X0345818Y-0044574D01*
X0347532Y-0044003D01*
X0348675D01*
X0349817Y-0044574D01*
X0350960Y-0045717D01*
X0351531Y-0046859D01*
X0352103Y-0049144D01*
Y-0050858D01*
X0351531Y-0053144D01*
X0350960Y-0054286D01*
X0349817Y-0055429D01*
X0348675Y-0056000D01*
X0347532D02*
X0346390Y-0055429D01*
X0345247Y-0054286D01*
X0344676Y-0053144D01*
X0344104Y-0050858D01*
Y-0049144D01*
X0344676Y-0046859D01*
X0345247Y-0045717D01*
X0346390Y-0044574D01*
X0347532Y-0044003D01*
X0340162D02*
Y-0056000D01*
X0339591Y-0044003D02*
Y-0056000D01*
X0341876Y-0044003D02*
X0335021D01*
X0333307Y-0044574D01*
X0332735Y-0045145D01*
X0332164Y-0046288D01*
Y-0047430D01*
X0332735Y-0048573D01*
X0333307Y-0049144D01*
X0335021Y-0049716D01*
Y-0044003D02*
X0333878Y-0044574D01*
X0333307Y-0045145D01*
X0332735Y-0046288D01*
Y-0047430D01*
X0333307Y-0048573D01*
X0333878Y-0049144D01*
X0335021Y-0049716D01*
X0339591D02*
X0335021D01*
X0333307Y-0050287D01*
X0332735Y-0050858D01*
X0332164Y-0052001D01*
Y-0053715D01*
X0332735Y-0054857D01*
X0333307Y-0055429D01*
X0335021Y-0056000D01*
X0341876D01*
X0335021Y-0049716D02*
X0333878Y-0050287D01*
X0333307Y-0050858D01*
X0332735Y-0052001D01*
Y-0053715D01*
X0333307Y-0054857D01*
X0333878Y-0055429D01*
X0335021Y-0056000D01*
X0326565Y-0044003D02*
X0328279Y-0044574D01*
X0329422Y-0045717D01*
X0329993Y-0046859D01*
X0330564Y-0049144D01*
Y-0050858D01*
X0329993Y-0053144D01*
X0329422Y-0054286D01*
X0328279Y-0055429D01*
X0326565Y-0056000D01*
X0325423D01*
X0323709Y-0055429D01*
X0322566Y-0054286D01*
X0321995Y-0053144D01*
X0321424Y-0050858D01*
Y-0049144D01*
X0321995Y-0046859D01*
X0322566Y-0045717D01*
X0323709Y-0044574D01*
X0325423Y-0044003D01*
X0326565D01*
X0327708Y-0044574D01*
X0328851Y-0045717D01*
X0329422Y-0046859D01*
X0329993Y-0049144D01*
Y-0050858D01*
X0329422Y-0053144D01*
X0328851Y-0054286D01*
X0327708Y-0055429D01*
X0326565Y-0056000D01*
X0325423D02*
X0324280Y-0055429D01*
X0323137Y-0054286D01*
X0322566Y-0053144D01*
X0321995Y-0050858D01*
Y-0049144D01*
X0322566Y-0046859D01*
X0323137Y-0045717D01*
X0324280Y-0044574D01*
X0325423Y-0044003D01*
X0315768D02*
Y-0056000D01*
X0315196Y-0044003D02*
Y-0056000D01*
X0319195Y-0044003D02*
X0319767Y-0047430D01*
Y-0044003D01*
X0311197D01*
Y-0047430D01*
X0311768Y-0044003D01*
X0317481Y-0056000D02*
X0313482D01*
X0304341Y-0044003D02*
X0308341Y-0056000D01*
X0304341Y-0044003D02*
X0300342Y-0056000D01*
X0304341Y-0045717D02*
X0300914Y-0056000D01*
X0307198Y-0052572D02*
X0302056D01*
X0309483Y-0056000D02*
X0306055D01*
X0302627D02*
X0299200D01*
X0295943Y-0044003D02*
Y-0056000D01*
X0295372Y-0044003D02*
Y-0056000D01*
X0297657Y-0044003D02*
X0293658D01*
X0297657Y-0056000D02*
X0293658D01*
X0290345Y-0044003D02*
X0282917Y-0056000D01*
X0289773Y-0044003D02*
X0282346Y-0056000D01*
Y-0044003D02*
X0290345Y-0056000D01*
X0291487Y-0044003D02*
X0288059D01*
X0284631D02*
X0281204D01*
X0291487Y-0056000D02*
X0288059D01*
X0284631D02*
X0281204D01*
D47*
X0152713Y-0129330D02*
G03*
X0152713Y-0129330I-0000492J0000000D01*
G01*
X0107243Y-0061247D02*
G03*
X0107243Y-0061247I-0000492J0000000D01*
G01*
D48*
X0144543Y-0134645D02*
G03*
X0144543Y-0134645I-0001181J0000000D01*
G01*
D49*
X0134300Y-0130905D02*
X0147375D01*
X0134300Y-0156495D02*
X0147700D01*
X0001100Y-0174000D02*
X0001700D01*
X0001100D02*
Y-0023200D01*
X0089000D01*
X0001700Y-0174000D02*
X0089000D01*
Y-0023200D01*
X0248800Y-0065200D02*
Y-0000200D01*
X0142800Y-0065200D02*
Y-0023700D01*
Y-0065200D02*
X0248800D01*
X0142800Y-0023700D02*
Y-0000200D01*
X0248800D01*
X0264000Y-0025250D02*
Y-0017750D01*
X0255000D02*
X0264000D01*
X0255000Y-0025250D02*
Y-0017750D01*
X0264000Y-0040250D02*
Y-0032750D01*
X0255000Y-0040250D02*
X0264000D01*
X0255000D02*
Y-0032750D01*
X0183850Y-0138300D02*
X0191350D01*
X0183850Y-0147300D02*
Y-0138300D01*
Y-0147300D02*
X0191350D01*
X0198850Y-0138300D02*
X0206350D01*
Y-0147300D02*
Y-0138300D01*
X0198850Y-0147300D02*
X0206350D01*
X0363500Y-0176200D02*
Y-0168700D01*
X0355500D02*
X0363500D01*
X0355500Y-0176200D02*
Y-0168700D01*
X0363500Y-0186700D02*
Y-0179200D01*
X0355500Y-0186700D02*
X0363500D01*
X0355500D02*
Y-0179200D01*
X0121750Y-0188000D02*
Y-0182000D01*
X0117250Y-0188000D02*
X0121750D01*
X0117250Y-0182000D02*
X0121750D01*
X0110250Y-0188000D02*
X0114750D01*
X0110250Y-0182000D02*
X0114750D01*
X0110250Y-0188000D02*
Y-0182000D01*
X0126800Y-0130450D02*
X0132800D01*
X0126800D02*
Y-0125950D01*
X0132800Y-0130450D02*
Y-0125950D01*
X0126800Y-0123450D02*
Y-0118950D01*
X0132800Y-0123450D02*
Y-0118950D01*
X0126800D02*
X0132800D01*
X0155300Y-0154150D02*
X0161300D01*
X0155300D02*
Y-0149650D01*
X0161300Y-0154150D02*
Y-0149650D01*
X0155300Y-0147150D02*
Y-0142650D01*
X0161300Y-0147150D02*
Y-0142650D01*
X0155300D02*
X0161300D01*
X0140658Y-0164426D02*
X0144747D01*
X0140656Y-0173753D02*
Y-0164426D01*
X0141227D02*
Y-0162457D01*
X0138600Y-0182143D02*
Y-0162457D01*
X0144747Y-0162457D01*
X0138600Y-0182143D02*
X0139747D01*
X0163653Y-0162457D02*
X0165600Y-0162457D01*
X0158653Y-0180174D02*
X0162742D01*
X0148653Y-0180174D02*
X0149747D01*
X0153653Y-0162457D02*
X0154747D01*
X0162742Y-0177812D02*
X0165600D01*
X0163653Y-0166788D02*
X0165600D01*
Y-0182143D02*
Y-0177812D01*
Y-0166788D02*
Y-0162457D01*
X0162742Y-0180174D02*
Y-0177812D01*
Y-0180174D02*
Y-0177812D01*
Y-0170847D01*
X0153653Y-0164426D02*
X0154747D01*
X0148653Y-0182143D02*
X0149747D01*
X0158653D02*
X0165600Y-0182143D01*
X0135243Y-0162457D02*
X0138600D01*
X0135200Y-0162500D02*
X0135243Y-0162457D01*
X0135357Y-0182143D02*
X0138600D01*
X0135200D02*
Y-0162500D01*
Y-0182143D02*
X0135357D01*
X0165600Y-0162457D02*
X0168657D01*
X0168700Y-0162500D01*
X0165600Y-0182143D02*
X0168543D01*
X0168700Y-0181985D02*
Y-0162500D01*
X0168543Y-0182143D02*
X0168700Y-0181985D01*
X0235950Y-0160000D02*
Y-0154000D01*
X0240450D01*
X0235950Y-0160000D02*
X0240450D01*
X0242950Y-0154000D02*
X0247450D01*
X0242950Y-0160000D02*
X0247450D01*
Y-0154000D01*
X0236150Y-0170000D02*
Y-0164000D01*
X0240650D01*
X0236150Y-0170000D02*
X0240650D01*
X0243150Y-0164000D02*
X0247650D01*
X0243150Y-0170000D02*
X0247650D01*
Y-0164000D01*
X0229750Y-0191000D02*
Y-0185000D01*
X0225250Y-0191000D02*
X0229750D01*
X0225250Y-0185000D02*
X0229750D01*
X0218250Y-0191000D02*
X0222750D01*
X0218250Y-0185000D02*
X0222750D01*
X0218250Y-0191000D02*
Y-0185000D01*
X0229750D02*
Y-0179000D01*
X0225250Y-0185000D02*
X0229750D01*
X0225250Y-0179000D02*
X0229750D01*
X0218250Y-0185000D02*
X0222750D01*
X0218250Y-0179000D02*
X0222750D01*
X0218250Y-0185000D02*
Y-0179000D01*
X0229750Y-0178000D02*
Y-0172000D01*
X0225250Y-0178000D02*
X0229750D01*
X0225250Y-0172000D02*
X0229750D01*
X0218250Y-0178000D02*
X0222750D01*
X0218250Y-0172000D02*
X0222750D01*
X0218250Y-0178000D02*
Y-0172000D01*
X0229750D02*
Y-0166000D01*
X0225250Y-0172000D02*
X0229750D01*
X0225250Y-0166000D02*
X0229750D01*
X0218250Y-0172000D02*
X0222750D01*
X0218250Y-0166000D02*
X0222750D01*
X0218250Y-0172000D02*
Y-0166000D01*
X0229750Y-0165000D02*
Y-0159000D01*
X0225250Y-0165000D02*
X0229750D01*
X0225250Y-0159000D02*
X0229750D01*
X0218250Y-0165000D02*
X0222750D01*
X0218250Y-0159000D02*
X0222750D01*
X0218250Y-0165000D02*
Y-0159000D01*
X0229750D02*
Y-0153000D01*
X0225250Y-0159000D02*
X0229750D01*
X0225250Y-0153000D02*
X0229750D01*
X0218250Y-0159000D02*
X0222750D01*
X0218250Y-0153000D02*
X0222750D01*
X0218250Y-0159000D02*
Y-0153000D01*
X0312250Y-0031100D02*
X0319750D01*
X0312250Y-0040100D02*
Y-0031100D01*
Y-0040100D02*
X0319750D01*
X0327250Y-0031100D02*
X0334750D01*
Y-0040100D02*
Y-0031100D01*
X0327250Y-0040100D02*
X0334750D01*
X0327350Y-0067700D02*
X0334850D01*
Y-0058700D01*
X0327350D02*
X0334850D01*
X0312350Y-0067700D02*
X0319850D01*
X0312350D02*
Y-0058700D01*
X0319850D01*
X0312250Y-0131500D02*
X0319750D01*
X0312250Y-0140500D02*
Y-0131500D01*
Y-0140500D02*
X0319750D01*
X0327250Y-0131500D02*
X0334750D01*
Y-0140500D02*
Y-0131500D01*
X0327250Y-0140500D02*
X0334750D01*
X0327150Y-0166600D02*
X0334650D01*
Y-0157600D01*
X0327150D02*
X0334650D01*
X0312150Y-0166600D02*
X0319650D01*
X0312150D02*
Y-0157600D01*
X0319650D01*
X0231300Y-0128050D02*
X0237300D01*
Y-0132550D02*
Y-0128050D01*
X0231300Y-0132550D02*
Y-0128050D01*
X0237300Y-0139550D02*
Y-0135050D01*
X0231300Y-0139550D02*
Y-0135050D01*
Y-0139550D02*
X0237300D01*
X0231200Y-0090050D02*
X0237200D01*
Y-0094550D02*
Y-0090050D01*
X0231200Y-0094550D02*
Y-0090050D01*
X0237200Y-0101550D02*
Y-0097050D01*
X0231200Y-0101550D02*
Y-0097050D01*
Y-0101550D02*
X0237200D01*
X0225300Y-0139550D02*
X0231300D01*
X0225300D02*
Y-0135050D01*
X0231300Y-0139550D02*
Y-0135050D01*
X0225300Y-0132550D02*
Y-0128050D01*
X0231300Y-0132550D02*
Y-0128050D01*
X0225300D02*
X0231300D01*
X0225200Y-0101550D02*
X0231200D01*
X0225200D02*
Y-0097050D01*
X0231200Y-0101550D02*
Y-0097050D01*
X0225200Y-0094550D02*
Y-0090050D01*
X0231200Y-0094550D02*
Y-0090050D01*
X0225200D02*
X0231200D01*
X0219300Y-0128050D02*
X0225300D01*
Y-0132550D02*
Y-0128050D01*
X0219300Y-0132550D02*
Y-0128050D01*
X0225300Y-0139550D02*
Y-0135050D01*
X0219300Y-0139550D02*
Y-0135050D01*
Y-0139550D02*
X0225300D01*
X0219200Y-0090050D02*
X0225200D01*
Y-0094550D02*
Y-0090050D01*
X0219200Y-0094550D02*
Y-0090050D01*
X0225200Y-0101550D02*
Y-0097050D01*
X0219200Y-0101550D02*
Y-0097050D01*
Y-0101550D02*
X0225200D01*
X0231300Y-0126850D02*
X0237300D01*
X0231300D02*
Y-0122350D01*
X0237300Y-0126850D02*
Y-0122350D01*
X0231300Y-0119850D02*
Y-0115350D01*
X0237300Y-0119850D02*
Y-0115350D01*
X0231300D02*
X0237300D01*
X0231200Y-0088650D02*
X0237200D01*
X0231200D02*
Y-0084150D01*
X0237200Y-0088650D02*
Y-0084150D01*
X0231200Y-0081650D02*
Y-0077150D01*
X0237200Y-0081650D02*
Y-0077150D01*
X0231200D02*
X0237200D01*
X0225300Y-0115350D02*
X0231300D01*
Y-0119850D02*
Y-0115350D01*
X0225300Y-0119850D02*
Y-0115350D01*
X0231300Y-0126850D02*
Y-0122350D01*
X0225300Y-0126850D02*
Y-0122350D01*
Y-0126850D02*
X0231300D01*
X0225200Y-0077150D02*
X0231200D01*
Y-0081650D02*
Y-0077150D01*
X0225200Y-0081650D02*
Y-0077150D01*
X0231200Y-0088650D02*
Y-0084150D01*
X0225200Y-0088650D02*
Y-0084150D01*
Y-0088650D02*
X0231200D01*
X0219300Y-0126850D02*
X0225300D01*
X0219300D02*
Y-0122350D01*
X0225300Y-0126850D02*
Y-0122350D01*
X0219300Y-0119850D02*
Y-0115350D01*
X0225300Y-0119850D02*
Y-0115350D01*
X0219300D02*
X0225300D01*
X0219200Y-0088650D02*
X0225200D01*
X0219200D02*
Y-0084150D01*
X0225200Y-0088650D02*
Y-0084150D01*
X0219200Y-0081650D02*
Y-0077150D01*
X0225200Y-0081650D02*
Y-0077150D01*
X0219200D02*
X0225200D01*
X0190250Y-0071200D02*
Y-0065200D01*
X0194750D01*
X0190250Y-0071200D02*
X0194750D01*
X0197250Y-0065200D02*
X0201750D01*
X0197250Y-0071200D02*
X0201750D01*
Y-0065200D01*
X0088500Y-0091950D02*
X0094500D01*
Y-0096450D02*
Y-0091950D01*
X0088500Y-0096450D02*
Y-0091950D01*
X0094500Y-0103450D02*
Y-0098950D01*
X0088500Y-0103450D02*
Y-0098950D01*
Y-0103450D02*
X0094500D01*
X0172900Y-0094150D02*
X0178900D01*
X0172900D02*
Y-0089650D01*
X0178900Y-0094150D02*
Y-0089650D01*
X0172900Y-0087150D02*
Y-0082650D01*
X0178900Y-0087150D02*
Y-0082650D01*
X0172900D02*
X0178900D01*
X0182900Y-0094150D02*
X0188900D01*
X0182900D02*
Y-0089650D01*
X0188900Y-0094150D02*
Y-0089650D01*
X0182900Y-0087150D02*
Y-0082650D01*
X0188900Y-0087150D02*
Y-0082650D01*
X0182900D02*
X0188900D01*
X0188026Y-0178242D02*
Y-0174153D01*
Y-0178244D02*
X0197353D01*
X0186057Y-0177673D02*
X0188026D01*
X0186057Y-0180300D02*
X0205743D01*
X0186057Y-0174153D02*
X0186057Y-0180300D01*
X0205743D02*
Y-0179153D01*
X0186057Y-0155247D02*
X0186057Y-0153300D01*
X0203774Y-0160247D02*
Y-0156158D01*
X0203774Y-0170247D02*
Y-0169153D01*
X0186057Y-0165247D02*
Y-0164153D01*
X0201412Y-0156158D02*
Y-0153300D01*
X0190388Y-0155247D02*
Y-0153300D01*
X0201412D02*
X0205743D01*
X0186057D02*
X0190388D01*
X0201412Y-0156158D02*
X0203774D01*
X0201412D02*
X0203774D01*
X0194447D02*
X0201412D01*
X0188026Y-0165247D02*
Y-0164153D01*
X0205743Y-0170247D02*
Y-0169153D01*
X0205743Y-0153300D02*
X0205743Y-0160247D01*
X0186057Y-0183657D02*
Y-0180300D01*
Y-0183657D02*
X0186100Y-0183700D01*
X0205743Y-0183543D02*
Y-0180300D01*
X0186100Y-0183700D02*
X0205743D01*
Y-0183543D01*
X0186057Y-0153300D02*
Y-0150243D01*
X0186100Y-0150200D01*
X0205743Y-0153300D02*
Y-0150357D01*
X0186100Y-0150200D02*
X0205585D01*
X0205743Y-0150357D01*
X0309550Y-0021800D02*
X0317050D01*
X0309550D02*
Y-0008800D01*
X0317050D01*
X0324550Y-0021800D02*
X0332050D01*
Y-0008800D01*
X0324550D02*
X0332050D01*
X0331050Y-0076100D02*
X0338550D01*
Y-0089100D02*
Y-0076100D01*
X0331050Y-0089100D02*
X0338550D01*
X0316050Y-0076100D02*
X0323550D01*
X0316050Y-0089100D02*
Y-0076100D01*
Y-0089100D02*
X0323550D01*
X0309250Y-0122300D02*
X0316750D01*
X0309250D02*
Y-0109300D01*
X0316750D01*
X0324250Y-0122300D02*
X0331750D01*
Y-0109300D01*
X0324250D02*
X0331750D01*
X0330750Y-0175200D02*
X0338250D01*
Y-0188200D02*
Y-0175200D01*
X0330750Y-0188200D02*
X0338250D01*
X0315750Y-0175200D02*
X0323250D01*
X0315750Y-0188200D02*
Y-0175200D01*
Y-0188200D02*
X0323250D01*
X0355500Y-0029700D02*
Y-0022200D01*
Y-0029700D02*
X0363500D01*
Y-0022200D01*
X0355500Y-0019200D02*
Y-0011700D01*
X0363500D01*
Y-0019200D02*
Y-0011700D01*
X0291500Y-0077200D02*
Y-0069700D01*
X0283500D02*
X0291500D01*
X0283500Y-0077200D02*
Y-0069700D01*
X0291500Y-0087700D02*
Y-0080200D01*
X0283500Y-0087700D02*
X0291500D01*
X0283500D02*
Y-0080200D01*
X0355500Y-0129700D02*
Y-0122200D01*
Y-0129700D02*
X0363500D01*
Y-0122200D01*
X0355500Y-0119200D02*
Y-0111700D01*
X0363500D01*
Y-0119200D02*
Y-0111700D01*
X0291500Y-0176200D02*
Y-0168700D01*
X0283500D02*
X0291500D01*
X0283500Y-0176200D02*
Y-0168700D01*
X0291500Y-0186700D02*
Y-0179200D01*
X0283500Y-0186700D02*
X0291500D01*
X0283500D02*
Y-0179200D01*
Y-0029700D02*
Y-0022200D01*
Y-0029700D02*
X0291500D01*
Y-0022200D01*
X0283500Y-0019200D02*
Y-0011700D01*
X0291500D01*
Y-0019200D02*
Y-0011700D01*
X0363500Y-0077200D02*
Y-0069700D01*
X0355500D02*
X0363500D01*
X0355500Y-0077200D02*
Y-0069700D01*
X0363500Y-0087700D02*
Y-0080200D01*
X0355500Y-0087700D02*
X0363500D01*
X0355500D02*
Y-0080200D01*
X0283500Y-0129700D02*
Y-0122200D01*
Y-0129700D02*
X0291500D01*
Y-0122200D01*
X0283500Y-0119200D02*
Y-0111700D01*
X0291500D01*
Y-0119200D02*
Y-0111700D01*
X0238800Y-0115350D02*
X0244800D01*
Y-0119850D02*
Y-0115350D01*
X0238800Y-0119850D02*
Y-0115350D01*
X0244800Y-0126850D02*
Y-0122350D01*
X0238800Y-0126850D02*
Y-0122350D01*
Y-0126850D02*
X0244800D01*
X0238800Y-0077150D02*
X0244800D01*
Y-0081650D02*
Y-0077150D01*
X0238800Y-0081650D02*
Y-0077150D01*
X0244800Y-0088650D02*
Y-0084150D01*
X0238800Y-0088650D02*
Y-0084150D01*
Y-0088650D02*
X0244800D01*
X0192900Y-0094150D02*
X0198900D01*
X0192900D02*
Y-0089650D01*
X0198900Y-0094150D02*
Y-0089650D01*
X0192900Y-0087150D02*
Y-0082650D01*
X0198900Y-0087150D02*
Y-0082650D01*
X0192900D02*
X0198900D01*
X0172700Y-0162350D02*
X0178700D01*
Y-0166850D02*
Y-0162350D01*
X0172700Y-0166850D02*
Y-0162350D01*
X0178700Y-0173850D02*
Y-0169350D01*
X0172700Y-0173850D02*
Y-0169350D01*
Y-0173850D02*
X0178700D01*
X0182550Y-0132600D02*
Y-0126600D01*
X0178050Y-0132600D02*
X0182550D01*
X0178050Y-0126600D02*
X0182550D01*
X0171050Y-0132600D02*
X0175550D01*
X0171050Y-0126600D02*
X0175550D01*
X0171050Y-0132600D02*
Y-0126600D01*
X0121750Y-0118000D02*
Y-0112000D01*
X0117250Y-0118000D02*
X0121750D01*
X0117250Y-0112000D02*
X0121750D01*
X0110250Y-0118000D02*
X0114750D01*
X0110250Y-0112000D02*
X0114750D01*
X0110250Y-0118000D02*
Y-0112000D01*
X0121750Y-0128000D02*
Y-0122000D01*
X0117250Y-0128000D02*
X0121750D01*
X0117250Y-0122000D02*
X0121750D01*
X0110250Y-0128000D02*
X0114750D01*
X0110250Y-0122000D02*
X0114750D01*
X0110250Y-0128000D02*
Y-0122000D01*
X0023800Y-0173550D02*
X0029800D01*
Y-0178050D02*
Y-0173550D01*
X0023800Y-0178050D02*
Y-0173550D01*
X0029800Y-0185050D02*
Y-0180550D01*
X0023800Y-0185050D02*
Y-0180550D01*
Y-0185050D02*
X0029800D01*
X0030800Y-0173550D02*
X0036800D01*
Y-0178050D02*
Y-0173550D01*
X0030800Y-0178050D02*
Y-0173550D01*
X0036800Y-0185050D02*
Y-0180550D01*
X0030800Y-0185050D02*
Y-0180550D01*
Y-0185050D02*
X0036800D01*
X0037800Y-0173550D02*
X0043800D01*
Y-0178050D02*
Y-0173550D01*
X0037800Y-0178050D02*
Y-0173550D01*
X0043800Y-0185050D02*
Y-0180550D01*
X0037800Y-0185050D02*
Y-0180550D01*
Y-0185050D02*
X0043800D01*
X0044800Y-0173550D02*
X0050800D01*
Y-0178050D02*
Y-0173550D01*
X0044800Y-0178050D02*
Y-0173550D01*
X0050800Y-0185050D02*
Y-0180550D01*
X0044800Y-0185050D02*
Y-0180550D01*
Y-0185050D02*
X0050800D01*
X0051800Y-0173550D02*
X0057800D01*
Y-0178050D02*
Y-0173550D01*
X0051800Y-0178050D02*
Y-0173550D01*
X0057800Y-0185050D02*
Y-0180550D01*
X0051800Y-0185050D02*
Y-0180550D01*
Y-0185050D02*
X0057800D01*
X0058800Y-0173550D02*
X0064800D01*
Y-0178050D02*
Y-0173550D01*
X0058800Y-0178050D02*
Y-0173550D01*
X0064800Y-0185050D02*
Y-0180550D01*
X0058800Y-0185050D02*
Y-0180550D01*
Y-0185050D02*
X0064800D01*
X0065800Y-0173550D02*
X0071800D01*
Y-0178050D02*
Y-0173550D01*
X0065800Y-0178050D02*
Y-0173550D01*
X0071800Y-0185050D02*
Y-0180550D01*
X0065800Y-0185050D02*
Y-0180550D01*
Y-0185050D02*
X0071800D01*
X0072800Y-0173550D02*
X0078800D01*
Y-0178050D02*
Y-0173550D01*
X0072800Y-0178050D02*
Y-0173550D01*
X0078800Y-0185050D02*
Y-0180550D01*
X0072800Y-0185050D02*
Y-0180550D01*
Y-0185050D02*
X0078800D01*
X0023800D02*
X0029800D01*
Y-0189550D02*
Y-0185050D01*
X0023800Y-0189550D02*
Y-0185050D01*
X0029800Y-0196550D02*
Y-0192050D01*
X0023800Y-0196550D02*
Y-0192050D01*
Y-0196550D02*
X0029800D01*
X0030800Y-0185050D02*
X0036800D01*
Y-0189550D02*
Y-0185050D01*
X0030800Y-0189550D02*
Y-0185050D01*
X0036800Y-0196550D02*
Y-0192050D01*
X0030800Y-0196550D02*
Y-0192050D01*
Y-0196550D02*
X0036800D01*
X0037800Y-0185050D02*
X0043800D01*
Y-0189550D02*
Y-0185050D01*
X0037800Y-0189550D02*
Y-0185050D01*
X0043800Y-0196550D02*
Y-0192050D01*
X0037800Y-0196550D02*
Y-0192050D01*
Y-0196550D02*
X0043800D01*
X0044800Y-0185050D02*
X0050800D01*
Y-0189550D02*
Y-0185050D01*
X0044800Y-0189550D02*
Y-0185050D01*
X0050800Y-0196550D02*
Y-0192050D01*
X0044800Y-0196550D02*
Y-0192050D01*
Y-0196550D02*
X0050800D01*
X0051800Y-0185050D02*
X0057800D01*
Y-0189550D02*
Y-0185050D01*
X0051800Y-0189550D02*
Y-0185050D01*
X0057800Y-0196550D02*
Y-0192050D01*
X0051800Y-0196550D02*
Y-0192050D01*
Y-0196550D02*
X0057800D01*
X0058800Y-0185050D02*
X0064800D01*
Y-0189550D02*
Y-0185050D01*
X0058800Y-0189550D02*
Y-0185050D01*
X0064800Y-0196550D02*
Y-0192050D01*
X0058800Y-0196550D02*
Y-0192050D01*
Y-0196550D02*
X0064800D01*
X0065800Y-0185050D02*
X0071800D01*
Y-0189550D02*
Y-0185050D01*
X0065800Y-0189550D02*
Y-0185050D01*
X0071800Y-0196550D02*
Y-0192050D01*
X0065800Y-0196550D02*
Y-0192050D01*
Y-0196550D02*
X0071800D01*
X0072800Y-0185050D02*
X0078800D01*
Y-0189550D02*
Y-0185050D01*
X0072800Y-0189550D02*
Y-0185050D01*
X0078800Y-0196550D02*
Y-0192050D01*
X0072800Y-0196550D02*
Y-0192050D01*
Y-0196550D02*
X0078800D01*
X0121750Y-0138000D02*
Y-0132000D01*
X0117250Y-0138000D02*
X0121750D01*
X0117250Y-0132000D02*
X0121750D01*
X0110250Y-0138000D02*
X0114750D01*
X0110250Y-0132000D02*
X0114750D01*
X0110250Y-0138000D02*
Y-0132000D01*
X0121750Y-0148000D02*
Y-0142000D01*
X0117250Y-0148000D02*
X0121750D01*
X0117250Y-0142000D02*
X0121750D01*
X0110250Y-0148000D02*
X0114750D01*
X0110250Y-0142000D02*
X0114750D01*
X0110250Y-0148000D02*
Y-0142000D01*
X0121750Y-0158000D02*
Y-0152000D01*
X0117250Y-0158000D02*
X0121750D01*
X0117250Y-0152000D02*
X0121750D01*
X0110250Y-0158000D02*
X0114750D01*
X0110250Y-0152000D02*
X0114750D01*
X0110250Y-0158000D02*
Y-0152000D01*
X0121750Y-0168000D02*
Y-0162000D01*
X0117250Y-0168000D02*
X0121750D01*
X0117250Y-0162000D02*
X0121750D01*
X0110250Y-0168000D02*
X0114750D01*
X0110250Y-0162000D02*
X0114750D01*
X0110250Y-0168000D02*
Y-0162000D01*
X0121750Y-0178000D02*
Y-0172000D01*
X0117250Y-0178000D02*
X0121750D01*
X0117250Y-0172000D02*
X0121750D01*
X0110250Y-0178000D02*
X0114750D01*
X0110250Y-0172000D02*
X0114750D01*
X0110250Y-0178000D02*
Y-0172000D01*
X0212343Y-0112101D02*
Y-0116100D01*
X0212057Y-0112101D02*
Y-0116100D01*
Y-0113815D02*
X0211772Y-0112958D01*
X0211200Y-0112387D01*
X0210629Y-0112101D01*
X0209772D01*
X0209487Y-0112387D01*
Y-0112672D01*
X0209772Y-0112958D01*
X0210058Y-0112672D01*
X0209772Y-0112387D01*
X0213200Y-0112101D02*
X0212057D01*
X0213200Y-0116100D02*
X0211200D01*
X0206858Y-0112101D02*
X0207716Y-0112387D01*
X0208287Y-0112958D01*
X0208572Y-0113815D01*
Y-0114386D01*
X0208287Y-0115243D01*
X0207716Y-0115814D01*
X0206858Y-0116100D01*
X0206287D01*
X0205430Y-0115814D01*
X0204859Y-0115243D01*
X0204573Y-0114386D01*
Y-0113815D01*
X0204859Y-0112958D01*
X0205430Y-0112387D01*
X0206287Y-0112101D01*
X0206858D01*
X0207430Y-0112387D01*
X0208001Y-0112958D01*
X0208287Y-0113815D01*
Y-0114386D01*
X0208001Y-0115243D01*
X0207430Y-0115814D01*
X0206858Y-0116100D01*
X0206287D02*
X0205716Y-0115814D01*
X0205145Y-0115243D01*
X0204859Y-0114386D01*
Y-0113815D01*
X0205145Y-0112958D01*
X0205716Y-0112387D01*
X0206287Y-0112101D01*
X0202831Y-0110101D02*
Y-0116100D01*
X0202545Y-0110101D02*
Y-0116100D01*
Y-0112958D02*
X0201974Y-0112387D01*
X0201402Y-0112101D01*
X0200831D01*
X0199974Y-0112387D01*
X0199403Y-0112958D01*
X0199117Y-0113815D01*
Y-0114386D01*
X0199403Y-0115243D01*
X0199974Y-0115814D01*
X0200831Y-0116100D01*
X0201402D01*
X0201974Y-0115814D01*
X0202545Y-0115243D01*
X0200831Y-0112101D02*
X0200260Y-0112387D01*
X0199689Y-0112958D01*
X0199403Y-0113815D01*
Y-0114386D01*
X0199689Y-0115243D01*
X0200260Y-0115814D01*
X0200831Y-0116100D01*
X0203688Y-0110101D02*
X0202545D01*
X0196575Y-0112101D02*
X0197432Y-0112387D01*
X0198003Y-0112958D01*
X0198289Y-0113815D01*
Y-0114386D01*
X0198003Y-0115243D01*
X0197432Y-0115814D01*
X0196575Y-0116100D01*
X0196004D01*
X0195147Y-0115814D01*
X0194575Y-0115243D01*
X0194290Y-0114386D01*
Y-0113815D01*
X0194575Y-0112958D01*
X0195147Y-0112387D01*
X0196004Y-0112101D01*
X0196575D01*
X0197146Y-0112387D01*
X0197718Y-0112958D01*
X0198003Y-0113815D01*
Y-0114386D01*
X0197718Y-0115243D01*
X0197146Y-0115814D01*
X0196575Y-0116100D01*
X0196004D02*
X0195432Y-0115814D01*
X0194861Y-0115243D01*
X0194575Y-0114386D01*
Y-0113815D01*
X0194861Y-0112958D01*
X0195432Y-0112387D01*
X0196004Y-0112101D01*
X0191690Y-0116100D02*
X0191976Y-0115814D01*
X0192262Y-0114957D01*
Y-0110101D01*
X0192547D01*
Y-0114957D01*
X0192262Y-0115814D01*
X0191690Y-0116100D01*
X0191119D01*
X0190548Y-0115814D01*
X0190262Y-0115243D01*
X0193404Y-0112101D02*
X0191119D01*
X0188719Y-0112672D02*
Y-0112958D01*
X0189005D01*
Y-0112672D01*
X0188719Y-0112387D01*
X0188148Y-0112101D01*
X0187006D01*
X0186434Y-0112387D01*
X0186149Y-0112672D01*
X0185863Y-0113243D01*
Y-0115243D01*
X0185577Y-0115814D01*
X0185292Y-0116100D01*
X0186149Y-0112672D02*
Y-0115243D01*
X0185863Y-0115814D01*
X0185292Y-0116100D01*
X0185006D01*
X0186149Y-0113243D02*
X0186434Y-0113529D01*
X0188148Y-0113815D01*
X0189005Y-0114100D01*
X0189291Y-0114672D01*
Y-0115243D01*
X0189005Y-0115814D01*
X0188148Y-0116100D01*
X0187291D01*
X0186720Y-0115814D01*
X0186149Y-0115243D01*
X0188148Y-0113815D02*
X0188719Y-0114100D01*
X0189005Y-0114672D01*
Y-0115243D01*
X0188719Y-0115814D01*
X0188148Y-0116100D01*
X0183292Y-0110101D02*
X0183578Y-0110387D01*
X0183292Y-0110673D01*
X0183007Y-0110387D01*
X0183292Y-0110101D01*
Y-0112101D02*
Y-0116100D01*
X0183007Y-0112101D02*
Y-0116100D01*
X0184149Y-0112101D02*
X0183007D01*
X0184149Y-0116100D02*
X0182150D01*
X0180493Y-0112101D02*
X0177350Y-0116100D01*
X0180207Y-0112101D02*
X0177065Y-0116100D01*
Y-0112101D02*
X0180493Y-0116100D01*
X0181064Y-0112101D02*
X0179350D01*
X0178208D02*
X0176494D01*
X0181064Y-0116100D02*
X0179350D01*
X0178208D02*
X0176494D01*
X0175380Y-0115529D02*
X0175665Y-0115814D01*
X0175380Y-0116100D01*
X0175094Y-0115814D01*
X0175380Y-0115529D01*
X0173009Y-0110101D02*
Y-0116100D01*
X0172723Y-0110101D02*
Y-0116100D01*
Y-0112958D02*
X0172152Y-0112387D01*
X0171580Y-0112101D01*
X0171009D01*
X0170152Y-0112387D01*
X0169581Y-0112958D01*
X0169295Y-0113815D01*
Y-0114386D01*
X0169581Y-0115243D01*
X0170152Y-0115814D01*
X0171009Y-0116100D01*
X0171580D01*
X0172152Y-0115814D01*
X0172723Y-0115243D01*
X0171009Y-0112101D02*
X0170438Y-0112387D01*
X0169866Y-0112958D01*
X0169581Y-0113815D01*
Y-0114386D01*
X0169866Y-0115243D01*
X0170438Y-0115814D01*
X0171009Y-0116100D01*
X0173866Y-0110101D02*
X0172723D01*
X0167610D02*
Y-0116100D01*
X0167324Y-0110101D02*
Y-0116100D01*
X0168467Y-0110101D02*
X0167324D01*
X0168467Y-0116100D02*
X0166467D01*
X0163668Y-0112101D02*
X0164525Y-0112387D01*
X0165096Y-0112958D01*
X0165382Y-0113815D01*
Y-0114386D01*
X0165096Y-0115243D01*
X0164525Y-0115814D01*
X0163668Y-0116100D01*
X0163096D01*
X0162240Y-0115814D01*
X0161668Y-0115243D01*
X0161382Y-0114386D01*
Y-0113815D01*
X0161668Y-0112958D01*
X0162240Y-0112387D01*
X0163096Y-0112101D01*
X0163668D01*
X0164239Y-0112387D01*
X0164810Y-0112958D01*
X0165096Y-0113815D01*
Y-0114386D01*
X0164810Y-0115243D01*
X0164239Y-0115814D01*
X0163668Y-0116100D01*
X0163096D02*
X0162525Y-0115814D01*
X0161954Y-0115243D01*
X0161668Y-0114386D01*
Y-0113815D01*
X0161954Y-0112958D01*
X0162525Y-0112387D01*
X0163096Y-0112101D01*
X0158783D02*
X0159354Y-0112387D01*
X0159640Y-0112672D01*
X0159926Y-0113243D01*
Y-0113815D01*
X0159640Y-0114386D01*
X0159354Y-0114672D01*
X0158783Y-0114957D01*
X0158212D01*
X0157641Y-0114672D01*
X0157355Y-0114386D01*
X0157069Y-0113815D01*
Y-0113243D01*
X0157355Y-0112672D01*
X0157641Y-0112387D01*
X0158212Y-0112101D01*
X0158783D01*
X0159354Y-0112387D02*
X0159640Y-0112958D01*
Y-0114100D01*
X0159354Y-0114672D01*
X0157641D02*
X0157355Y-0114100D01*
Y-0112958D01*
X0157641Y-0112387D01*
X0157355Y-0112672D02*
X0157069Y-0112387D01*
X0156498Y-0112101D01*
Y-0112387D01*
X0157069D01*
X0159640Y-0114386D02*
X0159926Y-0114672D01*
X0160211Y-0115243D01*
Y-0115529D01*
X0159926Y-0116100D01*
X0159069Y-0116386D01*
X0157641D01*
X0156783Y-0116671D01*
X0156498Y-0116957D01*
X0160211Y-0115529D02*
X0159926Y-0115814D01*
X0159069Y-0116100D01*
X0157641D01*
X0156783Y-0116386D01*
X0156498Y-0116957D01*
Y-0117243D01*
X0156783Y-0117814D01*
X0157641Y-0118100D01*
X0159354D01*
X0160211Y-0117814D01*
X0160497Y-0117243D01*
Y-0116957D01*
X0160211Y-0116386D01*
X0159354Y-0116100D01*
X0152756Y-0112672D02*
X0152470Y-0112101D01*
Y-0113243D01*
X0152756Y-0112672D01*
X0153042Y-0112387D01*
X0153613Y-0112101D01*
X0154755D01*
X0155327Y-0112387D01*
X0155612Y-0112672D01*
Y-0113243D01*
X0155327Y-0113529D01*
X0154755Y-0113815D01*
X0153327Y-0114386D01*
X0152756Y-0114672D01*
X0152470Y-0114957D01*
X0155612Y-0112958D02*
X0155327Y-0113243D01*
X0154755Y-0113529D01*
X0153327Y-0114100D01*
X0152756Y-0114386D01*
X0152470Y-0114672D01*
Y-0115529D01*
X0152756Y-0115814D01*
X0153327Y-0116100D01*
X0154470D01*
X0155041Y-0115814D01*
X0155327Y-0115529D01*
X0155612Y-0114957D01*
Y-0116100D01*
X0155327Y-0115529D01*
X0150642Y-0112101D02*
Y-0118100D01*
X0150356Y-0112101D02*
Y-0118100D01*
Y-0112958D02*
X0149785Y-0112387D01*
X0149214Y-0112101D01*
X0148642D01*
X0147785Y-0112387D01*
X0147214Y-0112958D01*
X0146929Y-0113815D01*
Y-0114386D01*
X0147214Y-0115243D01*
X0147785Y-0115814D01*
X0148642Y-0116100D01*
X0149214D01*
X0149785Y-0115814D01*
X0150356Y-0115243D01*
X0148642Y-0112101D02*
X0148071Y-0112387D01*
X0147500Y-0112958D01*
X0147214Y-0113815D01*
Y-0114386D01*
X0147500Y-0115243D01*
X0148071Y-0115814D01*
X0148642Y-0116100D01*
X0151499Y-0112101D02*
X0150356D01*
X0151499Y-0118100D02*
X0149499D01*
X0144386Y-0112101D02*
X0145243Y-0112387D01*
X0145815Y-0112958D01*
X0146100Y-0113815D01*
Y-0114386D01*
X0145815Y-0115243D01*
X0145243Y-0115814D01*
X0144386Y-0116100D01*
X0143815D01*
X0142958Y-0115814D01*
X0142387Y-0115243D01*
X0142101Y-0114386D01*
Y-0113815D01*
X0142387Y-0112958D01*
X0142958Y-0112387D01*
X0143815Y-0112101D01*
X0144386D01*
X0144957Y-0112387D01*
X0145529Y-0112958D01*
X0145815Y-0113815D01*
Y-0114386D01*
X0145529Y-0115243D01*
X0144957Y-0115814D01*
X0144386Y-0116100D01*
X0143815D02*
X0143244Y-0115814D01*
X0142672Y-0115243D01*
X0142387Y-0114386D01*
Y-0113815D01*
X0142672Y-0112958D01*
X0143244Y-0112387D01*
X0143815Y-0112101D01*
X0139502Y-0116100D02*
X0139787Y-0115814D01*
X0140073Y-0114957D01*
Y-0110101D01*
X0140358D01*
Y-0114957D01*
X0140073Y-0115814D01*
X0139502Y-0116100D01*
X0138930D01*
X0138359Y-0115814D01*
X0138073Y-0115243D01*
X0141215Y-0112101D02*
X0138930D01*
X0136816Y-0115529D02*
X0137102Y-0115814D01*
X0136816Y-0116100D01*
X0136531Y-0115814D01*
X0136816Y-0115529D01*
X0133017Y-0110387D02*
X0133303Y-0110673D01*
X0133017Y-0110958D01*
X0132731Y-0110673D01*
Y-0110387D01*
X0133017Y-0110101D01*
X0133589D01*
X0134160Y-0110387D01*
X0134446Y-0110958D01*
Y-0116100D01*
X0133589Y-0110101D02*
X0133874Y-0110387D01*
X0134160Y-0110958D01*
Y-0116100D01*
X0135302Y-0112101D02*
X0133017D01*
X0135302Y-0116100D02*
X0133303D01*
X0130846Y-0112101D02*
Y-0116100D01*
X0130561Y-0112101D02*
Y-0116100D01*
Y-0113815D02*
X0130275Y-0112958D01*
X0129704Y-0112387D01*
X0129132Y-0112101D01*
X0128275D01*
X0127990Y-0112387D01*
Y-0112672D01*
X0128275Y-0112958D01*
X0128561Y-0112672D01*
X0128275Y-0112387D01*
X0131703Y-0112101D02*
X0130561D01*
X0131703Y-0116100D02*
X0129704D01*
X0181698Y-0153800D02*
Y-0151467D01*
Y-0152634D01*
X0174700D01*
Y-0153800D01*
Y-0151467D01*
Y-0143303D02*
Y-0147969D01*
X0179365Y-0143303D01*
X0180531D01*
X0181698Y-0144470D01*
Y-0146802D01*
X0180531Y-0147969D01*
Y-0136306D02*
X0181698Y-0137472D01*
Y-0139804D01*
X0180531Y-0140971D01*
X0175866D01*
X0174700Y-0139804D01*
Y-0137472D01*
X0175866Y-0136306D01*
X0133298Y-0183900D02*
X0127466D01*
X0126300Y-0182734D01*
Y-0180401D01*
X0127466Y-0179235D01*
X0133298D01*
X0126300Y-0176902D02*
X0130965D01*
X0133298Y-0174570D01*
X0130965Y-0172237D01*
X0126300D01*
X0129799D01*
Y-0176902D01*
X0126300Y-0169904D02*
X0133298D01*
Y-0166406D01*
X0132131Y-0165239D01*
X0129799D01*
X0128633Y-0166406D01*
Y-0169904D01*
Y-0167572D02*
X0126300Y-0165239D01*
X0133298Y-0162907D02*
Y-0158242D01*
Y-0160574D01*
X0126300D01*
X0213643Y-0073701D02*
Y-0079700D01*
X0213357Y-0073701D02*
Y-0079700D01*
X0211644Y-0075415D02*
Y-0077700D01*
X0214500Y-0073701D02*
X0209930D01*
Y-0075415D01*
X0210215Y-0073701D01*
X0213357Y-0076558D02*
X0211644D01*
X0214500Y-0079700D02*
X0209930D01*
Y-0077986D01*
X0210215Y-0079700D01*
X0208244Y-0075701D02*
Y-0078843D01*
X0207959Y-0079414D01*
X0207102Y-0079700D01*
X0206530D01*
X0205673Y-0079414D01*
X0205102Y-0078843D01*
X0207959Y-0075701D02*
Y-0078843D01*
X0207673Y-0079414D01*
X0207102Y-0079700D01*
X0205102Y-0075701D02*
Y-0079700D01*
X0204816Y-0075701D02*
Y-0079700D01*
X0209101Y-0075701D02*
X0207959D01*
X0205959D02*
X0204816D01*
X0205102Y-0079700D02*
X0203959D01*
X0202331Y-0075701D02*
Y-0079700D01*
X0202045Y-0075701D02*
Y-0079700D01*
Y-0077415D02*
X0201760Y-0076558D01*
X0201189Y-0075986D01*
X0200617Y-0075701D01*
X0199760D01*
X0199475Y-0075986D01*
Y-0076272D01*
X0199760Y-0076558D01*
X0200046Y-0076272D01*
X0199760Y-0075986D01*
X0203188Y-0075701D02*
X0202045D01*
X0203188Y-0079700D02*
X0201189D01*
X0196847Y-0075701D02*
X0197704Y-0075986D01*
X0198275Y-0076558D01*
X0198561Y-0077415D01*
Y-0077986D01*
X0198275Y-0078843D01*
X0197704Y-0079414D01*
X0196847Y-0079700D01*
X0196275D01*
X0195418Y-0079414D01*
X0194847Y-0078843D01*
X0194561Y-0077986D01*
Y-0077415D01*
X0194847Y-0076558D01*
X0195418Y-0075986D01*
X0196275Y-0075701D01*
X0196847D01*
X0197418Y-0075986D01*
X0197989Y-0076558D01*
X0198275Y-0077415D01*
Y-0077986D01*
X0197989Y-0078843D01*
X0197418Y-0079414D01*
X0196847Y-0079700D01*
X0196275D02*
X0195704Y-0079414D01*
X0195133Y-0078843D01*
X0194847Y-0077986D01*
Y-0077415D01*
X0195133Y-0076558D01*
X0195704Y-0075986D01*
X0196275Y-0075701D01*
X0192819Y-0073701D02*
Y-0079700D01*
X0192533Y-0073701D02*
Y-0079700D01*
Y-0076558D02*
X0191962Y-0075986D01*
X0191391Y-0075701D01*
X0190819D01*
X0189962Y-0075986D01*
X0189391Y-0076558D01*
X0189105Y-0077415D01*
Y-0077986D01*
X0189391Y-0078843D01*
X0189962Y-0079414D01*
X0190819Y-0079700D01*
X0191391D01*
X0191962Y-0079414D01*
X0192533Y-0078843D01*
X0190819Y-0075701D02*
X0190248Y-0075986D01*
X0189677Y-0076558D01*
X0189391Y-0077415D01*
Y-0077986D01*
X0189677Y-0078843D01*
X0190248Y-0079414D01*
X0190819Y-0079700D01*
X0193676Y-0073701D02*
X0192533D01*
X0186563Y-0075701D02*
X0187420Y-0075986D01*
X0187991Y-0076558D01*
X0188277Y-0077415D01*
Y-0077986D01*
X0187991Y-0078843D01*
X0187420Y-0079414D01*
X0186563Y-0079700D01*
X0185992D01*
X0185135Y-0079414D01*
X0184564Y-0078843D01*
X0184278Y-0077986D01*
Y-0077415D01*
X0184564Y-0076558D01*
X0185135Y-0075986D01*
X0185992Y-0075701D01*
X0186563D01*
X0187134Y-0075986D01*
X0187706Y-0076558D01*
X0187991Y-0077415D01*
Y-0077986D01*
X0187706Y-0078843D01*
X0187134Y-0079414D01*
X0186563Y-0079700D01*
X0185992D02*
X0185421Y-0079414D01*
X0184849Y-0078843D01*
X0184564Y-0077986D01*
Y-0077415D01*
X0184849Y-0076558D01*
X0185421Y-0075986D01*
X0185992Y-0075701D01*
X0181678Y-0079700D02*
X0181964Y-0079414D01*
X0182250Y-0078557D01*
Y-0073701D01*
X0182535D01*
Y-0078557D01*
X0182250Y-0079414D01*
X0181678Y-0079700D01*
X0181107D01*
X0180536Y-0079414D01*
X0180250Y-0078843D01*
X0183392Y-0075701D02*
X0181107D01*
X0173594Y-0074844D02*
X0173309Y-0075129D01*
X0173594Y-0075415D01*
X0173880Y-0075129D01*
Y-0074844D01*
X0173594Y-0074273D01*
X0173309Y-0073987D01*
X0172452Y-0073701D01*
X0171309D01*
X0170452Y-0073987D01*
X0170167Y-0074273D01*
X0169881Y-0074844D01*
Y-0075415D01*
X0170167Y-0075986D01*
X0171024Y-0076558D01*
X0172452Y-0077129D01*
X0173023Y-0077415D01*
X0173594Y-0077986D01*
X0173880Y-0078843D01*
Y-0079700D01*
X0171309Y-0073701D02*
X0170738Y-0073987D01*
X0170452Y-0074273D01*
X0170167Y-0074844D01*
Y-0075415D01*
X0170452Y-0075986D01*
X0171309Y-0076558D01*
X0172452Y-0077129D01*
X0173880Y-0079129D02*
X0173594Y-0078843D01*
X0173023D01*
X0171595Y-0079414D01*
X0170738D01*
X0170167Y-0079129D01*
X0169881Y-0078843D01*
Y-0078272D01*
X0173023Y-0078843D02*
X0171595Y-0079700D01*
X0170452D01*
X0170167Y-0079414D01*
X0169881Y-0078843D01*
X0167281Y-0073701D02*
X0168139Y-0073987D01*
X0168710Y-0074844D01*
X0168995Y-0076272D01*
Y-0077129D01*
X0168710Y-0078557D01*
X0168139Y-0079414D01*
X0167281Y-0079700D01*
X0166710D01*
X0165853Y-0079414D01*
X0165282Y-0078557D01*
X0164996Y-0077129D01*
Y-0076272D01*
X0165282Y-0074844D01*
X0165853Y-0073987D01*
X0166710Y-0073701D01*
X0167281D01*
X0167853Y-0073987D01*
X0168139Y-0074273D01*
X0168424Y-0074844D01*
X0168710Y-0076272D01*
Y-0077129D01*
X0168424Y-0078557D01*
X0168139Y-0079129D01*
X0167853Y-0079414D01*
X0167281Y-0079700D01*
X0166710D02*
X0166139Y-0079414D01*
X0165853Y-0079129D01*
X0165568Y-0078557D01*
X0165282Y-0077129D01*
Y-0076272D01*
X0165568Y-0074844D01*
X0165853Y-0074273D01*
X0166139Y-0073987D01*
X0166710Y-0073701D01*
X0164111Y-0074844D02*
X0163540Y-0074558D01*
X0162682Y-0073701D01*
Y-0079700D01*
X0162968Y-0073987D02*
Y-0079700D01*
X0164111D02*
X0161540D01*
X0159940Y-0073701D02*
X0160512Y-0076558D01*
X0159940Y-0075986D01*
X0159083Y-0075701D01*
X0158226D01*
X0157369Y-0075986D01*
X0156798Y-0076558D01*
X0156512Y-0077415D01*
Y-0077986D01*
X0156798Y-0078843D01*
X0157369Y-0079414D01*
X0158226Y-0079700D01*
X0159083D01*
X0159940Y-0079414D01*
X0160226Y-0079129D01*
X0160512Y-0078557D01*
Y-0078272D01*
X0160226Y-0077986D01*
X0159940Y-0078272D01*
X0160226Y-0078557D01*
X0158226Y-0075701D02*
X0157655Y-0075986D01*
X0157084Y-0076558D01*
X0156798Y-0077415D01*
Y-0077986D01*
X0157084Y-0078843D01*
X0157655Y-0079414D01*
X0158226Y-0079700D01*
X0159940Y-0073701D02*
X0157084D01*
X0159940Y-0073987D02*
X0158512D01*
X0157084Y-0073701D01*
D51*
X0112657Y-0060223D02*
Y-0025577D01*
X0119743Y-0060223D02*
Y-0025577D01*
X0112657Y-0060223D02*
X0119743D01*
X0112657Y-0025577D02*
X0119743D01*
D86*
X0362630Y-0145587D02*
X0362201Y-0144302D01*
Y-0146873D01*
X0362630Y-0145587D01*
X0363487Y-0144730D01*
X0364772Y-0144302D01*
X0366058D01*
X0367343Y-0144730D01*
X0368200Y-0145587D01*
Y-0146444D01*
X0367772Y-0147301D01*
X0367343Y-0147730D01*
X0366486Y-0148158D01*
X0363915Y-0149015D01*
X0363058Y-0149444D01*
X0362201Y-0150301D01*
X0368200Y-0146444D02*
X0367343Y-0147301D01*
X0366486Y-0147730D01*
X0363915Y-0148587D01*
X0363058Y-0149015D01*
X0362630Y-0149444D01*
X0362201Y-0150301D01*
Y-0152015D01*
X0363058Y-0152872D01*
X0364344Y-0153300D01*
X0365629D01*
X0366915Y-0152872D01*
X0367772Y-0152015D01*
X0368200Y-0150729D01*
Y-0153300D01*
X0367772Y-0152015D01*
X0359588Y-0144302D02*
Y-0150729D01*
X0359159Y-0152015D01*
X0358302Y-0152872D01*
X0357017Y-0153300D01*
X0356160D01*
X0354874Y-0152872D01*
X0354017Y-0152015D01*
X0353589Y-0150729D01*
Y-0144302D01*
X0359159D02*
Y-0150729D01*
X0358731Y-0152015D01*
X0357874Y-0152872D01*
X0357017Y-0153300D01*
X0360873Y-0144302D02*
X0357874D01*
X0354874D02*
X0352303D01*
X0349947D02*
Y-0153300D01*
X0349518Y-0144302D02*
Y-0153300D01*
X0351232Y-0144302D02*
X0346947D01*
X0345662Y-0144730D01*
X0344805Y-0145587D01*
X0344376Y-0146444D01*
X0343948Y-0147730D01*
Y-0149872D01*
X0344376Y-0151158D01*
X0344805Y-0152015D01*
X0345662Y-0152872D01*
X0346947Y-0153300D01*
X0351232D01*
X0346947Y-0144302D02*
X0346091Y-0144730D01*
X0345233Y-0145587D01*
X0344805Y-0146444D01*
X0344376Y-0147730D01*
Y-0149872D01*
X0344805Y-0151158D01*
X0345233Y-0152015D01*
X0346091Y-0152872D01*
X0346947Y-0153300D01*
X0341463Y-0144302D02*
Y-0153300D01*
X0341034Y-0144302D02*
Y-0153300D01*
X0342748Y-0144302D02*
X0337607D01*
X0336321Y-0144730D01*
X0335893Y-0145159D01*
X0335464Y-0146016D01*
Y-0146873D01*
X0335893Y-0147730D01*
X0336321Y-0148158D01*
X0337607Y-0148587D01*
X0341034D01*
X0337607Y-0144302D02*
X0336750Y-0144730D01*
X0336321Y-0145159D01*
X0335893Y-0146016D01*
Y-0146873D01*
X0336321Y-0147730D01*
X0336750Y-0148158D01*
X0337607Y-0148587D01*
X0342748Y-0153300D02*
X0339749D01*
X0338892Y-0148587D02*
X0338035Y-0149015D01*
X0337607Y-0149444D01*
X0336321Y-0152443D01*
X0335893Y-0152872D01*
X0335464D01*
X0335036Y-0152443D01*
X0338035Y-0149015D02*
X0337607Y-0149872D01*
X0336750Y-0152872D01*
X0336321Y-0153300D01*
X0335464D01*
X0335036Y-0152443D01*
Y-0152015D01*
X0332593Y-0144302D02*
Y-0153300D01*
X0332165Y-0144302D02*
Y-0153300D01*
X0333879Y-0144302D02*
X0330879D01*
X0333879Y-0153300D02*
X0330879D01*
X0325395Y-0144302D02*
X0328394Y-0153300D01*
X0325395Y-0144302D02*
X0322395Y-0153300D01*
X0325395Y-0145587D02*
X0322824Y-0153300D01*
X0327537Y-0150729D02*
X0323681D01*
X0329251Y-0153300D02*
X0326680D01*
X0324109D02*
X0321539D01*
X0319096Y-0144302D02*
Y-0153300D01*
X0318668Y-0144302D02*
Y-0153300D01*
X0320382Y-0144302D02*
X0315240D01*
X0313954Y-0144730D01*
X0313526Y-0145159D01*
X0313098Y-0146016D01*
Y-0146873D01*
X0313526Y-0147730D01*
X0313954Y-0148158D01*
X0315240Y-0148587D01*
Y-0144302D02*
X0314383Y-0144730D01*
X0313954Y-0145159D01*
X0313526Y-0146016D01*
Y-0146873D01*
X0313954Y-0147730D01*
X0314383Y-0148158D01*
X0315240Y-0148587D01*
X0318668D02*
X0315240D01*
X0313954Y-0149015D01*
X0313526Y-0149444D01*
X0313098Y-0150301D01*
Y-0151586D01*
X0313526Y-0152443D01*
X0313954Y-0152872D01*
X0315240Y-0153300D01*
X0320382D01*
X0315240Y-0148587D02*
X0314383Y-0149015D01*
X0313954Y-0149444D01*
X0313526Y-0150301D01*
Y-0151586D01*
X0313954Y-0152443D01*
X0314383Y-0152872D01*
X0315240Y-0153300D01*
X0308898Y-0144302D02*
X0310184Y-0144730D01*
X0311041Y-0145587D01*
X0311469Y-0146444D01*
X0311898Y-0148158D01*
Y-0149444D01*
X0311469Y-0151158D01*
X0311041Y-0152015D01*
X0310184Y-0152872D01*
X0308898Y-0153300D01*
X0308041D01*
X0306756Y-0152872D01*
X0305899Y-0152015D01*
X0305471Y-0151158D01*
X0305042Y-0149444D01*
Y-0148158D01*
X0305471Y-0146444D01*
X0305899Y-0145587D01*
X0306756Y-0144730D01*
X0308041Y-0144302D01*
X0308898D01*
X0309755Y-0144730D01*
X0310612Y-0145587D01*
X0311041Y-0146444D01*
X0311469Y-0148158D01*
Y-0149444D01*
X0311041Y-0151158D01*
X0310612Y-0152015D01*
X0309755Y-0152872D01*
X0308898Y-0153300D01*
X0308041D02*
X0307185Y-0152872D01*
X0306328Y-0152015D01*
X0305899Y-0151158D01*
X0305471Y-0149444D01*
Y-0148158D01*
X0305899Y-0146444D01*
X0306328Y-0145587D01*
X0307185Y-0144730D01*
X0308041Y-0144302D01*
X0300800D02*
Y-0153300D01*
X0300372Y-0144302D02*
Y-0153300D01*
X0303371Y-0144302D02*
X0303800Y-0146873D01*
Y-0144302D01*
X0297372D01*
Y-0146873D01*
X0297801Y-0144302D01*
X0302086Y-0153300D02*
X0299086D01*
X0294801Y-0144302D02*
Y-0153300D01*
X0294373Y-0144302D02*
Y-0153300D01*
X0296087Y-0144302D02*
X0293088D01*
X0296087Y-0153300D02*
X0293088D01*
X0290174Y-0144302D02*
Y-0153300D01*
X0289745Y-0144302D02*
Y-0153300D01*
X0284175Y-0144302D02*
X0289745Y-0149872D01*
X0287603Y-0148158D02*
X0284175Y-0153300D01*
X0288032Y-0148158D02*
X0284604Y-0153300D01*
X0291459Y-0144302D02*
X0288460D01*
X0285889D02*
X0283318D01*
X0291459Y-0153300D02*
X0288460D01*
X0285889D02*
X0283318D01*
M02*
