%FSAX25Y25*%
%MOIN*%
G70*
G01*
G75*
G04 Layer_Physical_Order=1*
G04 Layer_Color=255*
%ADD10O,0.06890X0.02165*%
%ADD11O,0.02165X0.06890*%
%ADD12R,0.03740X0.07480*%
%ADD13R,0.21654X0.27165*%
%ADD14R,0.11811X0.05906*%
%ADD15R,0.11811X0.05906*%
%ADD16R,0.02992X0.04921*%
%ADD17O,0.08661X0.02362*%
%ADD18R,0.12500X0.06000*%
%ADD19R,0.10000X0.06000*%
%ADD20R,0.03000X0.03000*%
%ADD21R,0.03000X0.03000*%
%ADD22R,0.05906X0.11811*%
%ADD23R,0.05906X0.11811*%
%ADD24R,0.06000X0.06000*%
%ADD25R,0.06000X0.12500*%
%ADD26C,0.03500*%
%ADD27C,0.01200*%
%ADD28C,0.01500*%
%ADD29C,0.05000*%
%ADD30C,0.08000*%
%ADD31C,0.06000*%
%ADD32C,0.08661*%
%ADD33R,0.10000X0.10000*%
%ADD34C,0.10000*%
%ADD35C,0.06693*%
%ADD36R,0.06693X0.06693*%
%ADD37C,0.06890*%
%ADD38R,0.06890X0.06890*%
%ADD39R,0.10000X0.10000*%
%ADD40C,0.23622*%
%ADD41C,0.03200*%
D10*
X0196244Y-0161480D02*
D03*
Y-0158331D02*
D03*
Y-0155181D02*
D03*
Y-0152032D02*
D03*
Y-0148882D02*
D03*
Y-0145732D02*
D03*
Y-0142583D02*
D03*
Y-0139433D02*
D03*
Y-0136284D02*
D03*
Y-0133134D02*
D03*
Y-0129984D02*
D03*
X0151756D02*
D03*
Y-0133134D02*
D03*
Y-0136284D02*
D03*
Y-0139433D02*
D03*
Y-0142583D02*
D03*
Y-0145732D02*
D03*
Y-0148882D02*
D03*
Y-0152032D02*
D03*
Y-0155181D02*
D03*
Y-0158331D02*
D03*
Y-0161480D02*
D03*
D11*
X0189748Y-0123488D02*
D03*
X0186598D02*
D03*
X0183449D02*
D03*
X0180299D02*
D03*
X0177150D02*
D03*
X0174000D02*
D03*
X0170850D02*
D03*
X0167701D02*
D03*
X0164551D02*
D03*
X0161402D02*
D03*
X0158252D02*
D03*
Y-0167976D02*
D03*
X0161402D02*
D03*
X0164551D02*
D03*
X0167701D02*
D03*
X0170850D02*
D03*
X0174000D02*
D03*
X0177150D02*
D03*
X0180299D02*
D03*
X0183449D02*
D03*
X0186598D02*
D03*
X0189748D02*
D03*
D12*
X0190176Y-0010774D02*
D03*
X0172224D02*
D03*
X0232376D02*
D03*
X0214424D02*
D03*
D13*
X0181200Y-0035184D02*
D03*
X0223400D02*
D03*
D14*
X0052042Y-0039900D02*
D03*
Y-0049900D02*
D03*
X0241658Y-0158500D02*
D03*
X0223942Y-0183500D02*
D03*
Y-0173500D02*
D03*
X0224042Y-0121100D02*
D03*
Y-0131100D02*
D03*
Y-0082900D02*
D03*
Y-0092900D02*
D03*
X0013042Y-0144900D02*
D03*
Y-0154900D02*
D03*
Y-0109900D02*
D03*
Y-0119900D02*
D03*
Y-0074900D02*
D03*
Y-0084900D02*
D03*
Y-0039900D02*
D03*
Y-0049900D02*
D03*
X0052042Y-0144900D02*
D03*
Y-0154900D02*
D03*
Y-0109900D02*
D03*
Y-0119900D02*
D03*
Y-0074900D02*
D03*
Y-0084900D02*
D03*
D15*
X0069758Y-0034900D02*
D03*
Y-0044900D02*
D03*
X0241658Y-0168500D02*
D03*
Y-0178500D02*
D03*
X0223942Y-0163500D02*
D03*
X0241758Y-0116100D02*
D03*
Y-0126100D02*
D03*
Y-0077900D02*
D03*
Y-0087900D02*
D03*
X0030758Y-0139900D02*
D03*
Y-0149900D02*
D03*
Y-0104900D02*
D03*
Y-0114900D02*
D03*
Y-0069900D02*
D03*
Y-0079900D02*
D03*
Y-0034900D02*
D03*
Y-0044900D02*
D03*
X0069758Y-0139900D02*
D03*
Y-0149900D02*
D03*
Y-0104900D02*
D03*
Y-0114900D02*
D03*
Y-0069900D02*
D03*
Y-0079900D02*
D03*
D16*
X0032700Y-0168494D02*
D03*
X0037700D02*
D03*
X0047700Y-0192706D02*
D03*
X0037700D02*
D03*
X0032700D02*
D03*
X0042700Y-0168494D02*
D03*
X0047700D02*
D03*
X0042700Y-0192706D02*
D03*
X0067700Y-0168494D02*
D03*
X0062700D02*
D03*
X0057700D02*
D03*
Y-0192706D02*
D03*
X0062700D02*
D03*
X0067700D02*
D03*
X0052700Y-0168494D02*
D03*
Y-0192706D02*
D03*
D17*
X0125649Y-0057900D02*
D03*
Y-0052900D02*
D03*
Y-0047900D02*
D03*
Y-0042900D02*
D03*
Y-0037900D02*
D03*
Y-0032900D02*
D03*
Y-0027900D02*
D03*
X0106751Y-0057900D02*
D03*
Y-0052900D02*
D03*
Y-0047900D02*
D03*
Y-0042900D02*
D03*
Y-0037900D02*
D03*
Y-0032900D02*
D03*
Y-0027900D02*
D03*
D18*
X0086600Y-0060150D02*
D03*
Y-0041650D02*
D03*
D19*
X0160700Y-0046250D02*
D03*
Y-0032750D02*
D03*
X0202900Y-0046050D02*
D03*
Y-0032550D02*
D03*
D20*
X0118750Y-0185000D02*
D03*
X0113250D02*
D03*
X0256150Y-0132400D02*
D03*
X0250650D02*
D03*
X0225550Y-0013300D02*
D03*
X0220050D02*
D03*
X0183850Y-0013200D02*
D03*
X0178350D02*
D03*
X0149650Y-0067200D02*
D03*
X0155150D02*
D03*
X0088450Y-0116600D02*
D03*
X0093950D02*
D03*
X0225550Y-0007300D02*
D03*
X0220050D02*
D03*
X0183850D02*
D03*
X0178350D02*
D03*
X0204750Y-0174700D02*
D03*
X0210250D02*
D03*
X0204750Y-0164700D02*
D03*
X0210250D02*
D03*
X0107050Y-0065200D02*
D03*
X0112550D02*
D03*
X0129250Y-0192400D02*
D03*
X0123750D02*
D03*
X0118750Y-0115000D02*
D03*
X0113250D02*
D03*
X0118750Y-0125000D02*
D03*
X0113250D02*
D03*
X0118750Y-0135000D02*
D03*
X0113250D02*
D03*
X0118750Y-0145000D02*
D03*
X0113250D02*
D03*
X0118750Y-0155000D02*
D03*
X0113250D02*
D03*
X0118750Y-0165000D02*
D03*
X0113250D02*
D03*
X0118750Y-0175000D02*
D03*
X0113250D02*
D03*
D21*
X0161200Y-0057750D02*
D03*
Y-0063250D02*
D03*
X0091900Y-0105050D02*
D03*
Y-0110550D02*
D03*
X0247700Y-0143950D02*
D03*
Y-0138450D02*
D03*
X0136700Y-0033750D02*
D03*
Y-0039250D02*
D03*
X0136600Y-0051750D02*
D03*
Y-0046250D02*
D03*
X0098200Y-0057950D02*
D03*
Y-0063450D02*
D03*
X0002900Y-0151250D02*
D03*
Y-0156750D02*
D03*
Y-0122750D02*
D03*
Y-0128250D02*
D03*
Y-0088050D02*
D03*
Y-0093550D02*
D03*
Y-0053050D02*
D03*
Y-0058550D02*
D03*
X0041600Y-0151050D02*
D03*
Y-0156550D02*
D03*
Y-0122550D02*
D03*
Y-0128050D02*
D03*
Y-0087950D02*
D03*
Y-0093450D02*
D03*
Y-0052450D02*
D03*
Y-0057950D02*
D03*
X0002900Y-0145350D02*
D03*
Y-0139850D02*
D03*
Y-0116750D02*
D03*
Y-0111250D02*
D03*
Y-0082050D02*
D03*
Y-0076550D02*
D03*
Y-0047050D02*
D03*
Y-0041550D02*
D03*
X0041600Y-0145350D02*
D03*
Y-0139850D02*
D03*
Y-0116550D02*
D03*
Y-0111050D02*
D03*
Y-0081950D02*
D03*
Y-0076450D02*
D03*
Y-0046400D02*
D03*
Y-0040900D02*
D03*
D22*
X0185900Y-0091158D02*
D03*
X0175900D02*
D03*
X0190900Y-0073442D02*
D03*
D23*
X0195900Y-0091158D02*
D03*
X0170900Y-0073442D02*
D03*
X0180900D02*
D03*
D24*
X0204900Y-0023550D02*
D03*
Y-0010050D02*
D03*
X0162700Y-0023650D02*
D03*
Y-0010150D02*
D03*
D25*
X0230750Y-0058500D02*
D03*
X0212250D02*
D03*
D26*
X0044842Y-0009000D02*
X0060142Y-0024300D01*
X0060600D01*
X0095410Y-0091790D02*
Y-0087300D01*
X0082200Y-0105000D02*
X0095410Y-0091790D01*
X0082200Y-0167500D02*
Y-0105000D01*
X0085843Y-0009000D02*
Y-0003200D01*
X0044842Y-0009000D02*
X0050643Y-0003200D01*
X0085843D01*
X0121043D01*
X0126842Y-0009000D01*
D27*
X0187300Y-0050900D02*
X0196200D01*
X0184100Y-0054100D02*
X0187300Y-0050900D01*
X0184100Y-0062000D02*
Y-0054100D01*
X0196200Y-0050900D02*
X0201050Y-0046050D01*
X0124800Y-0072900D02*
X0146100Y-0051600D01*
Y-0044500D01*
X0140850Y-0039250D02*
X0146100Y-0044500D01*
X0124800Y-0080800D02*
Y-0072900D01*
Y-0095500D02*
Y-0080800D01*
X0181600Y-0064500D02*
X0184100Y-0062000D01*
X0136700Y-0039250D02*
X0140850D01*
X0201050Y-0046050D02*
X0202900D01*
X0223400Y-0067900D02*
Y-0035184D01*
Y-0067900D02*
X0232900Y-0077400D01*
Y-0081900D02*
Y-0077400D01*
Y-0081900D02*
X0238900Y-0087900D01*
X0241758D01*
X0170133Y-0046250D02*
X0181200Y-0035184D01*
X0160700Y-0046250D02*
X0170133D01*
X0202900Y-0046050D02*
X0212533D01*
X0121700Y-0097000D02*
Y-0066898D01*
X0117500Y-0098457D02*
X0145200Y-0126157D01*
X0117500Y-0098457D02*
Y-0065200D01*
X0119700Y-0097829D02*
X0147200Y-0125329D01*
X0138600Y-0124500D02*
X0139300D01*
X0138500Y-0124400D02*
X0138600Y-0124500D01*
X0138500Y-0124400D02*
Y-0123500D01*
X0095000Y-0080000D02*
X0138500Y-0123500D01*
X0082200Y-0080000D02*
X0095000D01*
X0117500Y-0192400D02*
X0123750D01*
X0129250D02*
X0130650Y-0191000D01*
X0136900D01*
X0136600Y-0046250D02*
X0142450D01*
X0107050Y-0070650D02*
Y-0065200D01*
X0098200Y-0068100D02*
Y-0063450D01*
X0133400Y-0057800D02*
X0136600Y-0054600D01*
Y-0051750D01*
X0106701Y-0057950D02*
X0106751Y-0057900D01*
X0098200Y-0057950D02*
X0106701D01*
X0117500Y-0065200D02*
Y-0054800D01*
X0112550Y-0065200D02*
X0117500D01*
X0195900Y-0094200D02*
Y-0091158D01*
X0187700Y-0102400D02*
X0195900Y-0094200D01*
X0185900Y-0094400D02*
Y-0091158D01*
X0180000Y-0100300D02*
X0185900Y-0094400D01*
X0171400Y-0081200D02*
X0176200D01*
X0157500Y-0095100D02*
X0171400Y-0081200D01*
X0172000Y-0083600D02*
X0183800D01*
X0164500Y-0091100D02*
X0172000Y-0083600D01*
X0180900Y-0076500D02*
Y-0073442D01*
X0176200Y-0081200D02*
X0180900Y-0076500D01*
X0190900D02*
Y-0073442D01*
X0183800Y-0083600D02*
X0190900Y-0076500D01*
X0172600Y-0097500D02*
X0175900Y-0094200D01*
Y-0091158D01*
X0132400Y-0046500D02*
Y-0037900D01*
X0125649D02*
X0132400D01*
X0157100Y-0128900D02*
X0162500D01*
X0164551Y-0126849D01*
X0121700Y-0066898D02*
X0125649Y-0062949D01*
X0106751Y-0057900D02*
X0114300D01*
X0113200Y-0050500D02*
Y-0037100D01*
Y-0050500D02*
X0117500Y-0054800D01*
X0125649Y-0062949D02*
Y-0057900D01*
Y-0027900D02*
X0132700D01*
X0117400Y-0032900D02*
X0125649D01*
X0113200Y-0037100D02*
X0117400Y-0032900D01*
X0131000Y-0047900D02*
X0132400Y-0046500D01*
X0125649Y-0047900D02*
X0131000D01*
X0116200Y-0042900D02*
X0125649D01*
X0167701Y-0130899D02*
Y-0123488D01*
X0164551Y-0126849D02*
Y-0123488D01*
X0136900Y-0191000D02*
X0145300Y-0182600D01*
X0167100D01*
X0175100Y-0174600D01*
X0174000Y-0135765D02*
Y-0123488D01*
X0218000Y-0156000D02*
X0232400D01*
X0210250Y-0163750D02*
X0218000Y-0156000D01*
X0210250Y-0164700D02*
Y-0163750D01*
Y-0169600D02*
Y-0164700D01*
Y-0174700D02*
Y-0169600D01*
X0177150Y-0162800D02*
Y-0158850D01*
Y-0167976D02*
Y-0162800D01*
X0198200Y-0169600D02*
X0210250D01*
X0191400Y-0162800D02*
X0198200Y-0169600D01*
X0177150Y-0162800D02*
X0191400D01*
X0177150Y-0172550D02*
Y-0167976D01*
X0175100Y-0174600D02*
X0177150Y-0172550D01*
X0062700Y-0167200D02*
X0071300Y-0158600D01*
X0062700Y-0168494D02*
Y-0167200D01*
X0109100Y-0183900D02*
X0111000Y-0182000D01*
X0115750D01*
X0118750Y-0185000D01*
X0109000Y-0174200D02*
X0111200Y-0172000D01*
X0115750D01*
X0118750Y-0175000D01*
X0109100Y-0164000D02*
X0111100Y-0162000D01*
X0115230D01*
X0118230Y-0165000D01*
X0118750D01*
X0109070Y-0154200D02*
X0111270Y-0152000D01*
X0115230D01*
X0118230Y-0155000D01*
X0118750D01*
X0111000Y-0142000D02*
X0115750D01*
X0108400Y-0144600D02*
X0111000Y-0142000D01*
X0108400Y-0144600D02*
X0109000Y-0145200D01*
X0109200D01*
X0115750Y-0142000D02*
X0118750Y-0145000D01*
X0324804Y-0011400D02*
X0330219Y-0005985D01*
X0336190Y-0013400D02*
X0343605Y-0005985D01*
X0206433Y-0139433D02*
X0218700Y-0151700D01*
X0248100D02*
X0273200Y-0176800D01*
X0218700Y-0151700D02*
X0248100D01*
X0248928Y-0149700D02*
X0274028Y-0174800D01*
X0219528Y-0149700D02*
X0248928D01*
X0206112Y-0136284D02*
X0219528Y-0149700D01*
X0164032Y-0145732D02*
X0174000Y-0135765D01*
X0164032Y-0145732D02*
X0177150Y-0158850D01*
X0189748Y-0167976D02*
Y-0165253D01*
X0274028Y-0174800D02*
X0289073D01*
X0288245Y-0176800D02*
X0303321Y-0191876D01*
X0273200Y-0176800D02*
X0288245D01*
X0196244Y-0136284D02*
X0206112D01*
X0196244Y-0139433D02*
X0206433D01*
X0196244Y-0148882D02*
X0205018D01*
X0205059Y-0148841D01*
X0202468Y-0152032D02*
X0202500Y-0152000D01*
X0196244Y-0152032D02*
X0202468D01*
X0196244Y-0155181D02*
X0204981D01*
X0196244Y-0158331D02*
X0202469D01*
X0048400Y-0154900D02*
X0052042D01*
X0044550Y-0151050D02*
X0048400Y-0154900D01*
X0041600Y-0151050D02*
X0044550D01*
X0041600D02*
Y-0145350D01*
Y-0119550D02*
Y-0116550D01*
Y-0122550D02*
Y-0119550D01*
X0051692D01*
X0041600Y-0084950D02*
Y-0081950D01*
Y-0087950D02*
Y-0084950D01*
X0051992D01*
X0041600Y-0049500D02*
Y-0046400D01*
Y-0052450D02*
Y-0049500D01*
X0051642D01*
X0002900Y-0050050D02*
Y-0047050D01*
Y-0053050D02*
Y-0050050D01*
X0012892D01*
X0002900Y-0085000D02*
Y-0082050D01*
Y-0088050D02*
Y-0085000D01*
X0012942D01*
X0002900Y-0119750D02*
Y-0116750D01*
Y-0122750D02*
Y-0119750D01*
X0012892D02*
X0013042Y-0119900D01*
X0002900Y-0119750D02*
X0012892D01*
X0009900Y-0154900D02*
X0013042D01*
X0006250Y-0151250D02*
X0009900Y-0154900D01*
X0002900Y-0151250D02*
X0006250D01*
X0002900D02*
Y-0145350D01*
X0067700Y-0190800D02*
X0089500D01*
X0062700Y-0191770D02*
X0065670Y-0188800D01*
X0088628D01*
X0103000Y-0174428D01*
X0089500Y-0190800D02*
X0096300Y-0184000D01*
X0087800Y-0186800D02*
X0098100Y-0176500D01*
X0062670Y-0186800D02*
X0087800D01*
X0086972Y-0184800D02*
X0096100Y-0175672D01*
X0059670Y-0184800D02*
X0086972D01*
X0086100Y-0182800D02*
X0094100Y-0174800D01*
X0056670Y-0182800D02*
X0086100D01*
X0085272Y-0180800D02*
X0092100Y-0173972D01*
X0053670Y-0180800D02*
X0085272D01*
X0084443Y-0178800D02*
X0090100Y-0173143D01*
X0050670Y-0178800D02*
X0084443D01*
X0083615Y-0176800D02*
X0088100Y-0172315D01*
X0047670Y-0176800D02*
X0083615D01*
X0057700Y-0191770D02*
X0062670Y-0186800D01*
X0052700Y-0191770D02*
X0059670Y-0184800D01*
X0047700Y-0191770D02*
X0056670Y-0182800D01*
X0042700Y-0191770D02*
X0053670Y-0180800D01*
X0037700Y-0191770D02*
X0050670Y-0178800D01*
X0032700Y-0191770D02*
X0047670Y-0176800D01*
X0096300Y-0184000D02*
X0103000D01*
X0090100Y-0173143D02*
Y-0136900D01*
X0088100Y-0172315D02*
Y-0128900D01*
X0064700Y-0160000D02*
X0064900D01*
X0057700Y-0167200D02*
X0064900Y-0160000D01*
X0057700Y-0168494D02*
Y-0167200D01*
X0058157Y-0162100D02*
X0058200D01*
X0052700Y-0167557D02*
X0058157Y-0162100D01*
X0052700Y-0168494D02*
Y-0167557D01*
X0042700Y-0168494D02*
Y-0163600D01*
X0044200Y-0162100D01*
X0037700Y-0168494D02*
Y-0162100D01*
X0032700Y-0168494D02*
Y-0167400D01*
X0030200Y-0164900D02*
X0032700Y-0167400D01*
X0030200Y-0164900D02*
Y-0162100D01*
X0088100Y-0128900D02*
X0103000Y-0114000D01*
X0090100Y-0136900D02*
X0103000Y-0124000D01*
X0092100Y-0144900D02*
X0103000Y-0134000D01*
X0092100Y-0173972D02*
Y-0144900D01*
X0094100Y-0152900D02*
X0103000Y-0144000D01*
X0094100Y-0174800D02*
Y-0152900D01*
X0096100Y-0160900D02*
X0103000Y-0154000D01*
X0096100Y-0175672D02*
Y-0160900D01*
X0098100Y-0168900D02*
X0103000Y-0164000D01*
X0098100Y-0176500D02*
Y-0168900D01*
X0103000Y-0174428D02*
Y-0174000D01*
X0154347Y-0167976D02*
X0158252D01*
X0151000Y-0164630D02*
X0154347Y-0167976D01*
X0103000Y-0184000D02*
X0107000Y-0180000D01*
X0103000Y-0174000D02*
X0107000Y-0170000D01*
X0103000Y-0154000D02*
X0107000Y-0150000D01*
X0103000Y-0144000D02*
X0107000Y-0140000D01*
X0103000Y-0124000D02*
X0107000Y-0120000D01*
X0103000Y-0114000D02*
X0107000Y-0110000D01*
X0224042Y-0131100D02*
X0226900D01*
X0196244Y-0142583D02*
X0201883D01*
X0254200Y-0043828D02*
X0284628Y-0013400D01*
X0336190D01*
X0252200Y-0043000D02*
X0283800Y-0011400D01*
X0324804D01*
X0152700Y-0191000D02*
X0157100Y-0186600D01*
X0144800Y-0191000D02*
X0151200Y-0184600D01*
X0168785Y-0191000D02*
X0186598Y-0173187D01*
X0170357Y-0186600D02*
X0183449Y-0173508D01*
X0169528Y-0184600D02*
X0180299Y-0173829D01*
X0151200Y-0184600D02*
X0169528D01*
X0180299Y-0173829D02*
Y-0167976D01*
X0157100Y-0186600D02*
X0170357D01*
X0183449Y-0173508D02*
Y-0167976D01*
X0168500Y-0191000D02*
X0168785D01*
X0186598Y-0173187D02*
Y-0167976D01*
X0170850Y-0172950D02*
Y-0167976D01*
X0167701Y-0176599D02*
Y-0167976D01*
X0164551Y-0172951D02*
Y-0167976D01*
X0161402Y-0176498D02*
Y-0167976D01*
X0191232Y-0145732D02*
X0196244D01*
X0188300Y-0142800D02*
X0191232Y-0145732D01*
X0228300Y-0136550D02*
Y-0132300D01*
Y-0098500D02*
Y-0093200D01*
X0151756Y-0148882D02*
X0156032D01*
X0158300Y-0151150D01*
X0177150Y-0127200D02*
Y-0123488D01*
Y-0127200D02*
X0179550Y-0129600D01*
X0151756Y-0145732D02*
X0164032D01*
X0174000Y-0167976D02*
Y-0161300D01*
X0201530Y-0161480D02*
X0204750Y-0164700D01*
X0196244Y-0161480D02*
X0201530D01*
X0189748Y-0173148D02*
Y-0167976D01*
Y-0173148D02*
X0191300Y-0174700D01*
X0204750D01*
X0103000Y-0134000D02*
X0107000Y-0130000D01*
X0115750Y-0112000D02*
X0118750Y-0115000D01*
X0111000Y-0112000D02*
X0115750D01*
X0109000Y-0114000D02*
X0111000Y-0112000D01*
X0109000Y-0115000D02*
Y-0114000D01*
X0118230Y-0125000D02*
X0118750D01*
X0115230Y-0122000D02*
X0118230Y-0125000D01*
X0111000Y-0122000D02*
X0115230D01*
X0108900Y-0124100D02*
X0111000Y-0122000D01*
X0118230Y-0135000D02*
X0118750D01*
X0115230Y-0132000D02*
X0118230Y-0135000D01*
X0111200Y-0132000D02*
X0115230D01*
X0108900Y-0134300D02*
X0111200Y-0132000D01*
X0132400Y-0037900D02*
X0132550D01*
X0136700Y-0033750D01*
X0067700Y-0168494D02*
Y-0167400D01*
X0073100Y-0162000D01*
X0076400D01*
X0047700Y-0168494D02*
Y-0167500D01*
X0051200Y-0164000D01*
Y-0162100D01*
X0103000Y-0164000D02*
X0108669Y-0158331D01*
X0107000Y-0180000D02*
X0126500D01*
X0141870Y-0164630D01*
X0151000D01*
X0145300Y-0182600D02*
Y-0171600D01*
X0149100Y-0167800D01*
X0147200Y-0128600D02*
Y-0125329D01*
X0145200Y-0129700D02*
Y-0126157D01*
X0054685Y-0009000D02*
X0059585Y-0013900D01*
X0090785D01*
X0095685Y-0009000D01*
X0100585Y-0013900D01*
X0131785D01*
X0136685Y-0009000D01*
X0119700Y-0097829D02*
Y-0053800D01*
X0120600Y-0052900D01*
X0125649D01*
X0157500Y-0114700D02*
Y-0095100D01*
Y-0114700D02*
X0158252Y-0115452D01*
Y-0123488D02*
Y-0115452D01*
X0161402Y-0123488D02*
Y-0115398D01*
X0164500Y-0112300D01*
Y-0091100D01*
X0170850Y-0123488D02*
Y-0115450D01*
X0172600Y-0113700D01*
Y-0097500D01*
X0174000Y-0123488D02*
Y-0115500D01*
X0180000Y-0109500D01*
Y-0100300D01*
X0177150Y-0123488D02*
Y-0116850D01*
X0187700Y-0106300D01*
Y-0102400D01*
X0183449Y-0123488D02*
Y-0118251D01*
X0185200Y-0116500D01*
X0180299Y-0118572D02*
X0184372Y-0114500D01*
X0180299Y-0123488D02*
Y-0118572D01*
X0186598Y-0123488D02*
Y-0119402D01*
X0187500Y-0118500D01*
X0254200Y-0094783D02*
Y-0043828D01*
X0252200Y-0093954D02*
Y-0043000D01*
X0244654Y-0101500D02*
X0252200Y-0093954D01*
X0245483Y-0103500D02*
X0254200Y-0094783D01*
X0248796Y-0111500D02*
X0254796Y-0105500D01*
X0247968Y-0109500D02*
X0253968Y-0103500D01*
X0247140Y-0107500D02*
X0253140Y-0101500D01*
X0246311Y-0105500D02*
X0252311Y-0099500D01*
X0289073Y-0174800D02*
X0301373Y-0187100D01*
X0311931D01*
X0316707Y-0191876D01*
X0338790Y-0110800D02*
X0343605Y-0105985D01*
X0325434Y-0101200D02*
X0330219Y-0105985D01*
X0311981Y-0088000D02*
X0316881Y-0092900D01*
X0298595Y-0097800D02*
X0303495Y-0092900D01*
X0253968Y-0103500D02*
X0274900D01*
X0277200Y-0101200D01*
X0325434D01*
X0253140Y-0101500D02*
X0274072D01*
X0252311Y-0099500D02*
X0273243D01*
X0284743Y-0088000D01*
X0274072Y-0101500D02*
X0277772Y-0097800D01*
X0298595D01*
X0284743Y-0088000D02*
X0311981D01*
X0254796Y-0105500D02*
X0274700D01*
X0280000Y-0110800D01*
X0338790D01*
X0184372Y-0114500D02*
X0205300D01*
X0218300Y-0101500D01*
X0244654D01*
X0206128Y-0116500D02*
X0219128Y-0103500D01*
X0245483D01*
X0206957Y-0118500D02*
X0219957Y-0105500D01*
X0246311D01*
X0220785Y-0107500D02*
X0247140D01*
X0221614Y-0109500D02*
X0247968D01*
X0222442Y-0111500D02*
X0248796D01*
X0200808Y-0133134D02*
X0222442Y-0111500D01*
X0201129Y-0129984D02*
X0221614Y-0109500D01*
X0204797Y-0123488D02*
X0220785Y-0107500D01*
X0185200Y-0116500D02*
X0206128D01*
X0187500Y-0118500D02*
X0206957D01*
X0189748Y-0123488D02*
X0204797D01*
X0196244Y-0129984D02*
X0201129D01*
X0196244Y-0133134D02*
X0200808D01*
X0121700Y-0097000D02*
X0149699Y-0125000D01*
X0153200D01*
X0157100Y-0128900D01*
X0158300Y-0151150D02*
X0163850D01*
X0174000Y-0161300D01*
X0179550Y-0134050D02*
Y-0129600D01*
Y-0134050D02*
X0188300Y-0142800D01*
X0147200Y-0128600D02*
X0148584Y-0129984D01*
X0151756D01*
X0145200Y-0129700D02*
X0148634Y-0133134D01*
X0151756D01*
X0107000Y-0120000D02*
X0127729D01*
X0107000Y-0130000D02*
X0134900D01*
X0147483Y-0142583D01*
X0147162Y-0139433D02*
X0151756D01*
X0120557Y-0110000D02*
X0146841Y-0136284D01*
X0151756D01*
X0107000Y-0110000D02*
X0120557D01*
X0147483Y-0142583D02*
X0151756D01*
X0127729Y-0120000D02*
X0147162Y-0139433D01*
X0151756Y-0136284D02*
X0156648D01*
X0159772Y-0133160D01*
X0151756Y-0139433D02*
X0156567D01*
X0158700Y-0137300D01*
X0161500D01*
X0151756Y-0142583D02*
X0156246D01*
X0157528Y-0141300D01*
X0159800D01*
X0107000Y-0140000D02*
X0139700D01*
X0142100Y-0142400D01*
X0147381Y-0155181D02*
X0151756D01*
X0107000Y-0150000D02*
X0118730D01*
X0121730Y-0147000D02*
X0142000D01*
Y-0149800D02*
Y-0147000D01*
X0118730Y-0150000D02*
X0121730Y-0147000D01*
X0142000Y-0149800D02*
X0142300Y-0150100D01*
X0142343D01*
X0144100Y-0151857D01*
Y-0151900D02*
Y-0151857D01*
Y-0151900D02*
X0147381Y-0155181D01*
X0146231Y-0158331D02*
X0151756D01*
X0139700Y-0151800D02*
X0146231Y-0158331D01*
X0108669D02*
X0124007D01*
X0130538Y-0151800D01*
X0139700D01*
X0107000Y-0170000D02*
X0126200D01*
X0139800Y-0156400D01*
X0144880Y-0161480D01*
X0151756D01*
X0148031Y-0152032D02*
X0151756D01*
X0145400Y-0149400D02*
X0148031Y-0152032D01*
X0145400Y-0149400D02*
Y-0145700D01*
X0142100Y-0142400D02*
X0145400Y-0145700D01*
X0124800Y-0080800D02*
X0151800D01*
X0168100Y-0064500D01*
X0181600D01*
X0157250Y-0067200D02*
X0161200Y-0063250D01*
X0155150Y-0067200D02*
X0157250D01*
X0256150Y-0132400D02*
X0259410Y-0135660D01*
Y-0149600D02*
Y-0135660D01*
X0247700Y-0135350D02*
X0250650Y-0132400D01*
X0247700Y-0138450D02*
Y-0135350D01*
X0082200Y-0105000D02*
X0091850D01*
X0091900Y-0114550D02*
Y-0110550D01*
Y-0114550D02*
X0093950Y-0116600D01*
X0225550Y-0033033D02*
Y-0013300D01*
X0220050D02*
Y-0007300D01*
X0183850Y-0032533D02*
Y-0013200D01*
X0178350D02*
Y-0007300D01*
D28*
X0152800Y-0057700D02*
X0177800D01*
X0152510D02*
X0152800D01*
X0079000Y-0072700D02*
X0101300D01*
X0071800Y-0079900D02*
X0079000Y-0072700D01*
X0069758Y-0079900D02*
X0071800D01*
X0104210Y-0075610D02*
X0109890D01*
X0101300Y-0072700D02*
X0104210Y-0075610D01*
X0030758Y-0079900D02*
X0034100D01*
X0037550Y-0076450D01*
X0041600D01*
X0198850Y-0004000D02*
X0204900Y-0010050D01*
X0213700D01*
X0171600Y-0010150D02*
X0172224Y-0010774D01*
X0162700Y-0010150D02*
X0171600D01*
X0134600Y-0075610D02*
X0152510Y-0057700D01*
X0021800Y-0069400D02*
Y-0051000D01*
Y-0073800D02*
Y-0069400D01*
X0005500D02*
X0021800D01*
X0002900Y-0072000D02*
X0005500Y-0069400D01*
X0002900Y-0076550D02*
Y-0072000D01*
X0021700Y-0104000D02*
Y-0086000D01*
Y-0109100D02*
Y-0104000D01*
X0005400D02*
X0021700D01*
X0002900Y-0106500D02*
X0005400Y-0104000D01*
X0002900Y-0111250D02*
Y-0106500D01*
X0021700Y-0144100D02*
Y-0120800D01*
X0002900Y-0139850D02*
X0021650D01*
X0027500Y-0114900D02*
X0027600D01*
X0027500Y-0149900D02*
X0030758D01*
X0021700Y-0144100D02*
X0027500Y-0149900D01*
X0021700Y-0120800D02*
X0027600Y-0114900D01*
X0030758D01*
X0027900Y-0079900D02*
X0030758D01*
X0027800D02*
X0027900D01*
X0021700Y-0109100D02*
X0027500Y-0114900D01*
X0021700Y-0086000D02*
X0027800Y-0079900D01*
X0006250Y-0044900D02*
X0027900D01*
X0021800Y-0073800D02*
X0027900Y-0079900D01*
X0021800Y-0051000D02*
X0027900Y-0044900D01*
X0030758D01*
X0034100D01*
X0002900Y-0041550D02*
X0006250Y-0044900D01*
X0067100D02*
X0069758D01*
X0066400D02*
X0067100D01*
X0061000Y-0039500D02*
X0066400Y-0044900D01*
X0061000Y-0039500D02*
Y-0036400D01*
X0058900Y-0034300D02*
X0061000Y-0036400D01*
X0044600Y-0034300D02*
X0058900D01*
X0041600Y-0037300D02*
X0044600Y-0034300D01*
X0041600Y-0040900D02*
Y-0037300D01*
X0060700Y-0069800D02*
Y-0051300D01*
Y-0073800D02*
Y-0069800D01*
X0042800D02*
X0060700D01*
X0041600Y-0071000D02*
X0042800Y-0069800D01*
X0041600Y-0076450D02*
Y-0071000D01*
X0061100Y-0105200D02*
Y-0086000D01*
Y-0109100D02*
Y-0105200D01*
X0043900D02*
X0061100D01*
X0041600Y-0107500D02*
X0043900Y-0105200D01*
X0041600Y-0111050D02*
Y-0107500D01*
X0061800Y-0144800D02*
Y-0119700D01*
X0041600Y-0139850D02*
X0061550D01*
X0067200Y-0079900D02*
X0069758D01*
X0066800D02*
X0067200D01*
X0060700Y-0051300D02*
X0067100Y-0044900D01*
X0060700Y-0073800D02*
X0066800Y-0079900D01*
X0066600Y-0114900D02*
X0066900D01*
X0061100Y-0086000D02*
X0067200Y-0079900D01*
X0061100Y-0109100D02*
X0066900Y-0114900D01*
X0069758D01*
X0061800Y-0119700D02*
X0066600Y-0114900D01*
X0061800Y-0144800D02*
X0066900Y-0149900D01*
X0069758D01*
X0153450Y-0019400D02*
X0162700Y-0010150D01*
X0152800Y-0057700D02*
X0153450Y-0057050D01*
Y-0019400D01*
X0172224Y-0010774D02*
Y-0007976D01*
X0176200Y-0004000D01*
X0198850D01*
D29*
X0296628Y-0171876D02*
X0305452Y-0180700D01*
X0350171Y-0171876D02*
X0372648Y-0149400D01*
X0382400D01*
X0350297Y-0125985D02*
X0381928D01*
X0382400Y-0125513D01*
X0296754Y-0125985D02*
X0304639Y-0118100D01*
X0363600D01*
X0369967Y-0111733D01*
X0382400D01*
X0305452Y-0180700D02*
X0356600D01*
X0374120Y-0163180D01*
X0382400D01*
X0296802Y-0072900D02*
X0304502Y-0080600D01*
X0374266D01*
X0381513Y-0087846D01*
X0382400D01*
X0350346Y-0072900D02*
X0381233D01*
X0382400Y-0074067D01*
X0296754Y-0025985D02*
X0304539Y-0018200D01*
X0353800D01*
X0372000Y-0036400D01*
X0382400D01*
X0350297Y-0025985D02*
X0374492Y-0050180D01*
X0382400D01*
X0259410Y-0115000D02*
X0280010Y-0135600D01*
X0313911D01*
X0323526Y-0125985D01*
X0259410Y-0149600D02*
X0272010Y-0162200D01*
X0313723D01*
X0323400Y-0171876D01*
X0259410Y-0080400D02*
X0274610Y-0065200D01*
X0315874D01*
X0323574Y-0072900D01*
X0259410Y-0045800D02*
X0270310Y-0034900D01*
X0314611D01*
X0323526Y-0025985D01*
X0082200Y-0030000D02*
X0091700Y-0020500D01*
X0147400D01*
X0082200Y-0037250D02*
X0086600Y-0041650D01*
X0082200Y-0037250D02*
Y-0030000D01*
X0231550Y-0057700D02*
X0240800D01*
Y-0017100D01*
D30*
X0253600D02*
X0259400Y-0011300D01*
X0241200Y-0017100D02*
X0253600D01*
D31*
X0208000Y-0104400D02*
D03*
X0168500Y-0191000D02*
D03*
X0152700D02*
D03*
X0144800D02*
D03*
X0136900D02*
D03*
Y-0104400D02*
D03*
X0144800D02*
D03*
X0152700D02*
D03*
X0192200D02*
D03*
X0200100D02*
D03*
X0208000Y-0191000D02*
D03*
X0054685Y-0009000D02*
D03*
X0044842D02*
D03*
X0035000D02*
D03*
X0109190Y-0087300D02*
D03*
X0095410D02*
D03*
X0095685Y-0009000D02*
D03*
X0085843D02*
D03*
X0076000D02*
D03*
X0136685D02*
D03*
X0126842D02*
D03*
X0117000D02*
D03*
X0273190Y-0045800D02*
D03*
X0259410D02*
D03*
X0273190Y-0080400D02*
D03*
X0259410D02*
D03*
X0273190Y-0115000D02*
D03*
X0259410D02*
D03*
X0273190Y-0149600D02*
D03*
X0259410D02*
D03*
X0134600Y-0089390D02*
D03*
Y-0075610D02*
D03*
D32*
X0082200Y-0092500D02*
D03*
X0007200Y-0030000D02*
D03*
Y-0167500D02*
D03*
X0082200D02*
D03*
Y-0105000D02*
D03*
Y-0080000D02*
D03*
Y-0030000D02*
D03*
X0190300Y-0057700D02*
D03*
X0240300Y-0007700D02*
D03*
X0152800D02*
D03*
Y-0057700D02*
D03*
X0177800D02*
D03*
X0202800D02*
D03*
X0240300D02*
D03*
D33*
X0273400Y-0185300D02*
D03*
X0259400Y-0011300D02*
D03*
D34*
X0259620Y-0185300D02*
D03*
X0382400Y-0050180D02*
D03*
Y-0087846D02*
D03*
Y-0125513D02*
D03*
Y-0163180D02*
D03*
X0273180Y-0011300D02*
D03*
D35*
X0330093Y-0191876D02*
D03*
X0323400Y-0171876D02*
D03*
X0316707Y-0191876D02*
D03*
X0310014Y-0171876D02*
D03*
X0303321Y-0191876D02*
D03*
X0296628Y-0171876D02*
D03*
X0356864Y-0191876D02*
D03*
X0350171Y-0171876D02*
D03*
X0343479Y-0191876D02*
D03*
X0336786Y-0171876D02*
D03*
X0316833Y-0005985D02*
D03*
X0323526Y-0025985D02*
D03*
X0330219Y-0005985D02*
D03*
X0336912Y-0025985D02*
D03*
X0343605Y-0005985D02*
D03*
X0350297Y-0025985D02*
D03*
X0290061Y-0005985D02*
D03*
X0296754Y-0025985D02*
D03*
X0303447Y-0005985D02*
D03*
X0310140Y-0025985D02*
D03*
X0330267Y-0092900D02*
D03*
X0323574Y-0072900D02*
D03*
X0316881Y-0092900D02*
D03*
X0310188Y-0072900D02*
D03*
X0303495Y-0092900D02*
D03*
X0296802Y-0072900D02*
D03*
X0357039Y-0092900D02*
D03*
X0350346Y-0072900D02*
D03*
X0343653Y-0092900D02*
D03*
X0336960Y-0072900D02*
D03*
X0316833Y-0105985D02*
D03*
X0323526Y-0125985D02*
D03*
X0330219Y-0105985D02*
D03*
X0336912Y-0125985D02*
D03*
X0343605Y-0105985D02*
D03*
X0350297Y-0125985D02*
D03*
X0290061Y-0105985D02*
D03*
X0296754Y-0125985D02*
D03*
X0303447Y-0105985D02*
D03*
X0310140Y-0125985D02*
D03*
D36*
X0289935Y-0191876D02*
D03*
X0356990Y-0005985D02*
D03*
X0290109Y-0092900D02*
D03*
X0356990Y-0105985D02*
D03*
D37*
X0103000Y-0174000D02*
D03*
Y-0164000D02*
D03*
Y-0154000D02*
D03*
Y-0144000D02*
D03*
Y-0134000D02*
D03*
Y-0124000D02*
D03*
Y-0184000D02*
D03*
D38*
Y-0114000D02*
D03*
D39*
X0382400Y-0036400D02*
D03*
Y-0074067D02*
D03*
Y-0111733D02*
D03*
Y-0149400D02*
D03*
D40*
X0011811Y-0011811D02*
D03*
X0378100Y-0014500D02*
D03*
X0381890Y-0185039D02*
D03*
X0011811D02*
D03*
D41*
X0060600Y-0024300D02*
D03*
X0212250Y-0058500D02*
D03*
X0149100Y-0167800D02*
D03*
X0124800Y-0095500D02*
D03*
X0139300Y-0124500D02*
D03*
X0160700Y-0046250D02*
D03*
X0086600Y-0060150D02*
D03*
X0109890Y-0075610D02*
D03*
X0160700Y-0032750D02*
D03*
X0162700Y-0023650D02*
D03*
X0202900Y-0032550D02*
D03*
X0204900Y-0023550D02*
D03*
X0041600Y-0057950D02*
D03*
Y-0128050D02*
D03*
Y-0156550D02*
D03*
X0069758Y-0139900D02*
D03*
Y-0069900D02*
D03*
Y-0034900D02*
D03*
X0030758D02*
D03*
X0002900Y-0058550D02*
D03*
Y-0093550D02*
D03*
Y-0128250D02*
D03*
Y-0156750D02*
D03*
X0069758Y-0104900D02*
D03*
X0041600Y-0093450D02*
D03*
X0030758Y-0069900D02*
D03*
Y-0104900D02*
D03*
Y-0139900D02*
D03*
X0117500Y-0192400D02*
D03*
X0142450Y-0046250D02*
D03*
X0107050Y-0070650D02*
D03*
X0098200Y-0068100D02*
D03*
X0195900Y-0091158D02*
D03*
X0185900Y-0091158D02*
D03*
X0175900D02*
D03*
X0133400Y-0057800D02*
D03*
X0114300Y-0057900D02*
D03*
X0125649Y-0062949D02*
D03*
X0132700Y-0027900D02*
D03*
X0116200Y-0042900D02*
D03*
X0167701Y-0130899D02*
D03*
X0232400Y-0156000D02*
D03*
X0071300Y-0157800D02*
D03*
X0109100Y-0183900D02*
D03*
X0109000Y-0174200D02*
D03*
X0109100Y-0164000D02*
D03*
X0109070Y-0154200D02*
D03*
X0109200Y-0145200D02*
D03*
X0113250Y-0115000D02*
D03*
Y-0125000D02*
D03*
Y-0135000D02*
D03*
Y-0145000D02*
D03*
Y-0155000D02*
D03*
Y-0165000D02*
D03*
Y-0175000D02*
D03*
Y-0185000D02*
D03*
X0052042Y-0144900D02*
D03*
X0013042D02*
D03*
Y-0109900D02*
D03*
X0052042D02*
D03*
Y-0074900D02*
D03*
Y-0039900D02*
D03*
X0013042D02*
D03*
Y-0074900D02*
D03*
X0076400Y-0162000D02*
D03*
X0064700Y-0160000D02*
D03*
X0058200Y-0162100D02*
D03*
X0051200D02*
D03*
X0044200D02*
D03*
X0037700D02*
D03*
X0030200D02*
D03*
X0170850Y-0172950D02*
D03*
X0167701Y-0176599D02*
D03*
X0164551Y-0172951D02*
D03*
X0161402Y-0176498D02*
D03*
X0221250Y-0182000D02*
D03*
Y-0175000D02*
D03*
Y-0162000D02*
D03*
X0244650Y-0167000D02*
D03*
X0244450Y-0157000D02*
D03*
X0241658Y-0178500D02*
D03*
X0201883Y-0142583D02*
D03*
X0188300Y-0142800D02*
D03*
X0202469Y-0158331D02*
D03*
X0204981Y-0155181D02*
D03*
X0202500Y-0152000D02*
D03*
X0205059Y-0148841D02*
D03*
X0228300Y-0136550D02*
D03*
X0241800Y-0116900D02*
D03*
Y-0125300D02*
D03*
X0228300Y-0119900D02*
D03*
Y-0098500D02*
D03*
X0228200Y-0081500D02*
D03*
X0241800Y-0078700D02*
D03*
Y-0087200D02*
D03*
X0158300Y-0145650D02*
D03*
Y-0151150D02*
D03*
X0174050Y-0129600D02*
D03*
X0179550D02*
D03*
X0159200Y-0160600D02*
D03*
X0204758Y-0174700D02*
D03*
Y-0164700D02*
D03*
X0175100Y-0174600D02*
D03*
X0174000Y-0161300D02*
D03*
X0187042Y-0159700D02*
D03*
X0109000Y-0115000D02*
D03*
X0108900Y-0124100D02*
D03*
Y-0134300D02*
D03*
X0136700Y-0033750D02*
D03*
X0147400Y-0020500D02*
D03*
X0240800Y-0017100D02*
D03*
X0190100Y-0010700D02*
D03*
X0232300D02*
D03*
X0159772Y-0133160D02*
D03*
X0161500Y-0137300D02*
D03*
X0159800Y-0141300D02*
D03*
X0142100Y-0142400D02*
D03*
X0142000Y-0147000D02*
D03*
X0139700Y-0151800D02*
D03*
X0139800Y-0156400D02*
D03*
X0141800Y-0164600D02*
D03*
X0149650Y-0067200D02*
D03*
X0247700Y-0143950D02*
D03*
X0088450Y-0116600D02*
D03*
X0225550Y-0007300D02*
D03*
X0183850D02*
D03*
M02*
