M48
;Layer_Color=9474304
;FILE_FORMAT=2:5
INCH
;TYPE=PLATED
T1F00S00C0.01400
T2F00S00C0.03000
T3F00S00C0.03937
T4F00S00C0.04331
T5F00S00C0.05000
T6F00S00C0.05118
T7F00S00C0.12205
;TYPE=NON_PLATED
T8F00S00C0.03000
%
T01
X0002900Y-0156750
Y-0128250
Y-0093550
Y-0058550
X0013042Y-0074900
X0030758Y-0069900
X0041600Y-0057950
X0052042Y-0074900
X0069758Y-0069900
X0086600Y-0060150
X0098200Y-0068100
X0107050Y-0070650
X0109890Y-0075610
X0114300Y-0057900
X0125649Y-0062949
X0133400Y-0057800
X0142450Y-0046250
X0160700
X0149650Y-0067200
X0124800Y-0095500
X0113250Y-0115000
X0109000
X0108900Y-0124100
X0113250Y-0125000
Y-0135000
X0108900Y-0134300
X0109200Y-0145200
X0113250Y-0145000
Y-0155000
X0109070Y-0154200
X0109100Y-0164000
X0113250Y-0165000
Y-0175000
X0109000Y-0174200
X0109100Y-0183900
X0113250Y-0185000
X0117500Y-0192400
X0141800Y-0164600
X0139800Y-0156400
X0139700Y-0151800
X0142000Y-0147000
X0142100Y-0142400
X0159800Y-0141300
X0161500Y-0137300
X0159772Y-0133160
X0158300Y-0145650
Y-0151150
X0159200Y-0160600
X0149100Y-0167800
X0161402Y-0176498
X0139300Y-0124500
X0088450Y-0116600
X0069758Y-0104900
X0052042Y-0109900
X0030758Y-0104900
X0041600Y-0093450
Y-0128050
X0030758Y-0139900
X0013042Y-0144900
X0030200Y-0162100
X0037700
X0044200
X0051200
X0058200
X0064700Y-0160000
X0071300Y-0157800
X0076400Y-0162000
X0069758Y-0139900
X0052042Y-0144900
X0041600Y-0156550
X0013042Y-0109900
X0167701Y-0130899
X0174050Y-0129600
X0179550
X0188300Y-0142800
X0201883Y-0142583
X0205059Y-0148841
X0202500Y-0152000
X0204981Y-0155181
X0202469Y-0158331
X0204758Y-0164700
Y-0174700
X0221250Y-0175000
Y-0182000
Y-0162000
X0232400Y-0156000
X0244450Y-0157000
X0244650Y-0167000
X0241658Y-0178500
X0247700Y-0143950
X0241800Y-0125300
Y-0116900
X0228300Y-0119900
Y-0136550
Y-0098500
X0228200Y-0081500
X0241800Y-0078700
Y-0087200
X0195900Y-0091158
X0185900Y-0091158
X0175900
X0212250Y-0058500
X0187042Y-0159700
X0174000Y-0161300
X0175100Y-0174600
X0170850Y-0172950
X0164551Y-0172951
X0167701Y-0176599
X0202900Y-0032550
X0204900Y-0023550
X0190100Y-0010700
X0183850Y-0007300
X0225550
X0232300Y-0010700
X0240800Y-0017100
X0162700Y-0023650
X0160700Y-0032750
X0136700Y-0033750
X0132700Y-0027900
X0147400Y-0020500
X0116200Y-0042900
X0069758Y-0034900
X0060600Y-0024300
X0052042Y-0039900
X0030758Y-0034900
X0013042Y-0039900
T02
X0136900Y-0191000
X0144800
X0152700
Y-0104400
X0144800
X0136900
X0134600Y-0089390
Y-0075610
X0109190Y-0087300
X0095410
X0192200Y-0104400
X0200100
X0208000
X0259410Y-0115000
X0273190
Y-0080400
X0259410
Y-0045800
X0273190
Y-0149600
X0259410
X0208000Y-0191000
X0168500
X0136685Y-0009000
X0126842
X0117000
X0095685
X0085843
X0076000
X0054685
X0044842
X0035000
T03
X0103000Y-0184000
Y-0174000
Y-0164000
Y-0154000
Y-0144000
Y-0134000
Y-0124000
Y-0114000
T04
X0289935Y-0191876
X0303321
X0316707
X0310014Y-0171876
X0296628
X0296754Y-0125985
X0310140
X0303447Y-0105985
X0303495Y-0092900
X0316881
X0316833Y-0105985
X0290061
X0290109Y-0092900
X0296802Y-0072900
X0310188
X0323574
X0336960
X0350346
X0343653Y-0092900
X0343605Y-0105985
X0330219
X0330267Y-0092900
X0357039
X0356990Y-0105985
X0350297Y-0125985
X0336912
X0323526
X0323400Y-0171876
X0336786
X0350171
X0343479Y-0191876
X0330093
X0356864
X0350297Y-0025985
X0336912
X0323526
X0330219Y-0005985
X0343605
X0356990
X0316833
X0303447
X0290061
X0296754Y-0025985
X0310140
T05
X0259620Y-0185300
X0273400
X0382400Y-0163180
Y-0149400
Y-0125513
Y-0111733
Y-0087846
Y-0074067
Y-0050180
Y-0036400
X0273180Y-0011300
X0259400
T06
X0007200Y-0167500
X0082200
Y-0105000
Y-0092500
Y-0080000
X0152800Y-0057700
X0177800
X0190300
X0202800
X0240300
Y-0007700
X0152800
X0082200Y-0030000
X0007200
T07
X0011811Y-0185039
X0381890
X0378100Y-0014500
X0011811Y-0011811
T08
X0160600Y-0191000
Y-0104400
X0168500
X0176400
X0184300
Y-0191000
X0192200
X0200100
X0176400
M30
